<?xml version="1.0" encoding="utf-8"?><svg fill="none" viewBox="0 0 2500 2160" xmlns="http://www.w3.org/2000/svg"><defs /><g id="Layer 7"><g transform="translate(1260.647,333.71)"><g transform="rotate(0)"><animateTransform repeatCount="indefinite" type="rotate" attributeName="transform" dur="30.163s" begin="0s" calcMode="spline" values="0; 0.373; 0.745; 1.118; 1.49; 1.863; 2.235; 2.608; 2.98; 3.353; 3.725; 4.098; 4.471; 4.843; 5.216; 5.588; 5.961; 6.333; 6.706; 7.078; 7.451; 7.824; 8.196; 8.569; 8.941; 9.314; 9.686; 10.059; 10.431; 10.804; 11.176; 11.549; 11.922; 12.294; 12.667; 13.039; 13.412; 13.784; 14.157; 14.529; 14.902; 15.275; 15.647; 16.02; 16.392; 16.765; 17.137; 17.51; 17.882; 18.255; 18.627; 19; 18.627; 18.255; 17.882; 17.51; 17.137; 16.765; 16.392; 16.02; 15.647; 15.275; 14.902; 14.529; 14.157; 13.784; 13.412; 13.039; 12.667; 12.294; 11.922; 11.549; 11.176; 10.804; 10.431; 10.059; 9.686; 9.314; 8.941; 8.569; 8.196; 7.824; 7.451; 7.078; 6.706; 6.333; 5.961; 5.588; 5.216; 4.843; 4.471; 4.098; 3.725; 3.353; 2.98; 2.608; 2.235; 1.863; 1.49; 1.118; 0.745; 0.373; 0; 0.373; 0.745; 1.118; 1.49; 1.863; 2.235; 2.608; 2.98; 3.353; 3.725; 4.098; 4.471; 4.843; 5.216; 5.588; 5.961; 6.333; 6.706; 7.078; 7.451; 7.824; 8.196; 8.569; 8.941; 9.314; 9.686; 10.059; 10.431; 10.804; 11.176; 11.549; 11.922; 12.294; 12.667; 13.039; 13.412; 13.784; 14.157; 14.529; 14.902; 15.275; 15.647; 16.02; 16.392; 16.765; 17.137; 17.51; 17.882; 18.255; 18.627; 19; 18.627; 18.255; 17.882; 17.51; 17.137; 16.765; 16.392; 16.02; 15.647; 15.275; 14.902; 14.529; 14.157; 13.784; 13.412; 13.039; 12.667; 12.294; 11.922; 11.549; 11.176; 10.804; 10.431; 10.059; 9.686; 9.314; 8.941; 8.569; 8.196; 7.824; 7.451; 7.078; 6.706; 6.333; 5.961; 5.588; 5.216; 4.843; 4.471; 4.098; 3.725; 3.353; 2.98; 2.608; 2.235; 1.863; 1.49; 1.118; 0.745; 0.373; 0; 0.373; 0.745; 1.118; 1.49; 1.863; 2.235; 2.608; 2.98; 3.353; 3.725; 4.098; 4.471; 4.843; 5.216; 5.588; 5.961; 6.333; 6.706; 7.078; 7.451; 7.824; 8.196; 8.569; 8.941; 9.314; 9.686; 10.059; 10.431; 10.804; 11.176; 11.549; 11.922; 12.294; 12.667; 13.039; 13.412; 13.784; 14.157; 14.529; 14.902; 15.275; 15.647; 16.02; 16.392; 16.765; 17.137; 17.51; 17.882; 18.255; 18.627; 19; 18.627; 18.255; 17.882; 17.51; 17.137; 16.765; 16.392; 16.02; 15.647; 15.275; 14.902; 14.529; 14.157; 13.784; 13.412; 13.039; 12.667; 12.294; 11.922; 11.549; 11.176; 10.804; 10.431; 10.059; 9.686; 9.314; 8.941; 8.569; 8.196; 7.824; 7.451; 7.078; 6.706; 6.333; 5.961; 5.588; 5.216; 4.843; 4.471; 4.098; 3.725; 3.353; 2.98; 2.608; 2.235; 1.863; 1.49; 1.118; 0.745; 0.373; 0; 0.373; 0.745; 1.118; 1.49; 1.863; 2.235; 2.608; 2.98; 3.353; 3.725; 4.098; 4.471; 4.843; 5.216; 5.588; 5.961; 6.333; 6.706; 7.078; 7.451; 7.824; 8.196; 8.569; 8.941; 9.314; 9.686; 10.059; 10.431; 10.804; 11.176; 11.549; 11.922; 12.294; 12.667; 13.039; 13.412; 13.784; 14.157; 14.529; 14.902; 15.275; 15.647; 16.02; 16.392; 16.765; 17.137; 17.51; 17.882; 18.255; 18.627; 19; 18.627; 18.255; 17.882; 17.51; 17.137; 16.765; 16.392; 16.02; 15.647; 15.275; 14.902; 14.529; 14.157; 13.784; 13.412; 13.039; 12.667; 12.294; 11.922; 11.549; 11.176; 10.804; 10.431; 10.059; 9.686; 9.314; 8.941; 8.569; 8.196; 7.824; 7.451; 7.078; 6.706; 6.333; 5.961; 5.588; 5.216; 4.843; 4.471; 4.098; 3.725; 3.353; 2.98; 2.608; 2.235; 1.863; 1.49; 1.118; 0.745; 0.373; 0; 0.373; 0.745; 1.118; 1.49; 1.863; 2.235; 2.608; 2.98; 3.353; 3.725; 4.098; 4.471; 4.843; 5.216; 5.588; 5.961; 6.333; 6.706; 7.078; 7.451; 7.824; 8.196; 8.569; 8.941; 9.314; 9.686; 10.059; 10.431; 10.804; 11.176; 11.549; 11.922; 12.294; 12.667; 13.039; 13.412; 13.784; 14.157; 14.529; 14.902; 15.275; 15.647; 16.02; 16.392; 16.765; 17.137; 17.51; 17.882; 18.255; 18.627; 19; 18.627; 18.255; 17.882; 17.51; 17.137; 16.765; 16.392; 16.02; 15.647; 15.275; 14.902; 14.529; 14.157; 13.784; 13.412; 13.039; 12.667; 12.294; 11.922; 11.549; 11.176; 10.804; 10.431; 10.059; 9.686; 9.314; 8.941; 8.569; 8.196; 7.824; 7.451; 7.078; 6.706; 6.333; 5.961; 5.588; 5.216; 4.843; 4.471; 4.098; 3.725; 3.353; 2.98; 2.608; 2.235; 1.863; 1.49; 1.118; 0.745; 0.373; 0; 0.373; 0.745; 1.118; 1.49; 1.863; 2.235; 2.608; 2.98; 3.353; 3.725; 4.098; 4.471; 4.843; 5.216; 5.588; 5.961; 6.333; 6.706; 7.078; 7.451; 7.824; 8.196; 8.569; 8.941; 9.314; 9.686; 10.059; 10.431; 10.804; 11.176; 11.549; 11.922; 12.294; 12.667; 13.039; 13.412; 13.784; 14.157; 14.529; 14.902; 15.275; 15.647; 16.02; 16.392; 16.765; 17.137; 17.51; 17.882; 18.255; 18.627; 19; 18.627; 18.255; 17.882; 17.51; 17.137; 16.765; 16.392; 16.02; 15.647; 15.275; 14.902; 14.529; 14.157; 13.784; 13.412; 13.039; 12.667; 12.294; 11.922; 11.549; 11.176; 10.804; 10.431; 10.059; 9.686; 9.314; 8.941; 8.569; 8.196; 7.824; 7.451; 7.078; 6.706; 6.333; 5.961; 5.588; 5.216; 4.843; 4.471; 4.098; 3.725; 3.353; 2.98; 2.608; 2.235; 1.863; 1.49; 1.118; 0.745; 0.373; 0; 0.373; 0.745; 1.118; 1.49; 1.863; 2.235; 2.608; 2.98; 3.353; 3.725; 4.098; 4.471; 4.843; 5.216; 5.588; 5.961; 6.333; 6.706; 7.078; 7.451; 7.824; 8.196; 8.569; 8.941; 9.314; 9.686; 10.059; 10.431; 10.804; 11.176; 11.549; 11.922; 12.294; 12.667; 13.039; 13.412; 13.784; 14.157; 14.529; 14.902; 15.275; 15.647; 16.02; 16.392; 16.765; 17.137; 17.51; 17.882; 18.255; 18.627; 19; 18.627; 18.255; 17.882; 17.51; 17.137; 16.765; 16.392; 16.02; 15.647; 15.275; 14.902; 14.529; 14.157; 13.784; 13.412; 13.039; 12.667; 12.294; 11.922; 11.549; 11.176; 10.804; 10.431; 10.059; 9.686; 9.314; 8.941; 8.569; 8.196; 7.824; 7.451; 7.078; 6.706; 6.333; 5.961; 5.588; 5.216; 4.843; 4.471; 4.098; 3.725; 3.353; 2.98; 2.608; 2.235; 1.863; 1.49; 1.118; 0.745; 0.373; 0; 0.373; 0.745; 1.118; 1.49; 1.863; 2.235; 2.608; 2.98; 3.353; 3.725; 4.098; 4.471; 4.843; 5.216; 5.588; 5.961; 6.333; 6.706; 7.078; 7.451; 7.824; 8.196; 8.569; 8.941; 9.314; 9.686; 10.059; 10.431; 10.804; 11.176; 11.549; 11.922; 12.294; 12.667; 13.039; 13.412; 13.784; 14.157; 14.529; 14.902; 15.275; 15.647; 16.02; 16.392; 16.765; 17.137; 17.51; 17.882; 18.255; 18.627; 19; 18.627; 18.255; 17.882; 17.51; 17.137; 16.765; 16.392; 16.02; 15.647; 15.275; 14.902; 14.529; 14.157; 13.784; 13.412; 13.039; 12.667; 12.294; 11.922; 11.549; 11.176; 10.804; 10.431; 10.059; 9.686; 9.314; 8.941; 8.569; 8.196; 7.824; 7.451; 7.078; 6.706; 6.333; 5.961; 5.588; 5.216; 4.843; 4.471; 4.098; 3.725; 3.353; 2.98; 2.608; 2.235; 1.863; 1.49; 1.118; 0.745; 0.373; 0; 0.373; 0.745; 1.118; 1.49; 1.863; 2.235; 2.608; 2.98; 3.353; 3.725; 4.098; 4.471; 4.843; 5.216; 5.588; 5.961; 6.333; 6.706; 7.078; 7.451; 7.824; 8.196; 8.569; 8.941; 9.314; 9.686; 10.059; 10.431; 10.804; 11.176; 11.549; 11.922; 12.294; 12.667; 13.039; 13.412; 13.784; 14.157; 14.529; 14.902; 15.275; 15.647; 16.02; 16.392; 16.765; 17.137; 17.51; 17.882; 18.255; 18.627; 19; 18.627; 18.255; 17.882; 17.51; 17.137; 16.765; 16.392; 16.02; 15.647; 15.275; 14.902; 14.529; 14.157; 13.784; 13.412; 13.039; 12.667; 12.294; 11.922; 11.549; 11.176; 10.804; 10.431; 10.059; 9.686; 9.314; 8.941; 8.569; 8.196; 7.824; 7.451; 7.078; 6.706; 6.333; 5.961; 5.588; 5.216" keyTimes="0; 0.001; 0.002; 0.003; 0.004; 0.006; 0.007; 0.008; 0.009; 0.01; 0.011; 0.012; 0.013; 0.014; 0.015; 0.017; 0.018; 0.019; 0.02; 0.021; 0.022; 0.023; 0.024; 0.025; 0.027; 0.028; 0.029; 0.03; 0.031; 0.032; 0.033; 0.034; 0.035; 0.037; 0.038; 0.039; 0.04; 0.041; 0.042; 0.043; 0.044; 0.045; 0.046; 0.048; 0.049; 0.05; 0.051; 0.052; 0.053; 0.054; 0.055; 0.056; 0.058; 0.059; 0.06; 0.061; 0.062; 0.063; 0.064; 0.065; 0.066; 0.067; 0.069; 0.07; 0.071; 0.072; 0.073; 0.074; 0.075; 0.076; 0.077; 0.079; 0.08; 0.081; 0.082; 0.083; 0.084; 0.085; 0.086; 0.087; 0.088; 0.09; 0.091; 0.092; 0.093; 0.094; 0.095; 0.096; 0.097; 0.098; 0.1; 0.101; 0.102; 0.103; 0.104; 0.105; 0.106; 0.107; 0.108; 0.11; 0.111; 0.112; 0.113; 0.114; 0.115; 0.116; 0.117; 0.118; 0.119; 0.121; 0.122; 0.123; 0.124; 0.125; 0.126; 0.127; 0.128; 0.129; 0.131; 0.132; 0.133; 0.134; 0.135; 0.136; 0.137; 0.138; 0.139; 0.14; 0.142; 0.143; 0.144; 0.145; 0.146; 0.147; 0.148; 0.149; 0.15; 0.152; 0.153; 0.154; 0.155; 0.156; 0.157; 0.158; 0.159; 0.16; 0.162; 0.163; 0.164; 0.165; 0.166; 0.167; 0.168; 0.169; 0.17; 0.171; 0.173; 0.174; 0.175; 0.176; 0.177; 0.178; 0.179; 0.18; 0.181; 0.183; 0.184; 0.185; 0.186; 0.187; 0.188; 0.189; 0.19; 0.191; 0.192; 0.194; 0.195; 0.196; 0.197; 0.198; 0.199; 0.2; 0.201; 0.202; 0.204; 0.205; 0.206; 0.207; 0.208; 0.209; 0.21; 0.211; 0.212; 0.213; 0.215; 0.216; 0.217; 0.218; 0.219; 0.22; 0.221; 0.222; 0.223; 0.225; 0.226; 0.227; 0.228; 0.229; 0.23; 0.231; 0.232; 0.233; 0.235; 0.236; 0.237; 0.238; 0.239; 0.24; 0.241; 0.242; 0.243; 0.244; 0.246; 0.247; 0.248; 0.249; 0.25; 0.251; 0.252; 0.253; 0.254; 0.256; 0.257; 0.258; 0.259; 0.26; 0.261; 0.262; 0.263; 0.264; 0.265; 0.267; 0.268; 0.269; 0.27; 0.271; 0.272; 0.273; 0.274; 0.275; 0.277; 0.278; 0.279; 0.28; 0.281; 0.282; 0.283; 0.284; 0.285; 0.287; 0.288; 0.289; 0.29; 0.291; 0.292; 0.293; 0.294; 0.295; 0.296; 0.298; 0.299; 0.3; 0.301; 0.302; 0.303; 0.304; 0.305; 0.306; 0.308; 0.309; 0.31; 0.311; 0.312; 0.313; 0.314; 0.315; 0.316; 0.317; 0.319; 0.32; 0.321; 0.322; 0.323; 0.324; 0.325; 0.326; 0.327; 0.329; 0.33; 0.331; 0.332; 0.333; 0.334; 0.335; 0.336; 0.337; 0.338; 0.34; 0.341; 0.342; 0.343; 0.344; 0.345; 0.346; 0.347; 0.348; 0.35; 0.351; 0.352; 0.353; 0.354; 0.355; 0.356; 0.357; 0.358; 0.36; 0.361; 0.362; 0.363; 0.364; 0.365; 0.366; 0.367; 0.368; 0.369; 0.371; 0.372; 0.373; 0.374; 0.375; 0.376; 0.377; 0.378; 0.379; 0.381; 0.382; 0.383; 0.384; 0.385; 0.386; 0.387; 0.388; 0.389; 0.39; 0.392; 0.393; 0.394; 0.395; 0.396; 0.397; 0.398; 0.399; 0.4; 0.402; 0.403; 0.404; 0.405; 0.406; 0.407; 0.408; 0.409; 0.41; 0.412; 0.413; 0.414; 0.415; 0.416; 0.417; 0.418; 0.419; 0.42; 0.421; 0.423; 0.424; 0.425; 0.426; 0.427; 0.428; 0.429; 0.43; 0.431; 0.433; 0.434; 0.435; 0.436; 0.437; 0.438; 0.439; 0.44; 0.441; 0.442; 0.444; 0.445; 0.446; 0.447; 0.448; 0.449; 0.45; 0.451; 0.452; 0.454; 0.455; 0.456; 0.457; 0.458; 0.459; 0.46; 0.461; 0.462; 0.463; 0.465; 0.466; 0.467; 0.468; 0.469; 0.47; 0.471; 0.472; 0.473; 0.475; 0.476; 0.477; 0.478; 0.479; 0.48; 0.481; 0.482; 0.483; 0.485; 0.486; 0.487; 0.488; 0.489; 0.49; 0.491; 0.492; 0.493; 0.494; 0.496; 0.497; 0.498; 0.499; 0.5; 0.501; 0.502; 0.503; 0.504; 0.506; 0.507; 0.508; 0.509; 0.51; 0.511; 0.512; 0.513; 0.514; 0.515; 0.517; 0.518; 0.519; 0.52; 0.521; 0.522; 0.523; 0.524; 0.525; 0.527; 0.528; 0.529; 0.53; 0.531; 0.532; 0.533; 0.534; 0.535; 0.537; 0.538; 0.539; 0.54; 0.541; 0.542; 0.543; 0.544; 0.545; 0.546; 0.548; 0.549; 0.55; 0.551; 0.552; 0.553; 0.554; 0.555; 0.556; 0.558; 0.559; 0.56; 0.561; 0.562; 0.563; 0.564; 0.565; 0.566; 0.567; 0.569; 0.57; 0.571; 0.572; 0.573; 0.574; 0.575; 0.576; 0.577; 0.579; 0.58; 0.581; 0.582; 0.583; 0.584; 0.585; 0.586; 0.587; 0.588; 0.59; 0.591; 0.592; 0.593; 0.594; 0.595; 0.596; 0.597; 0.598; 0.6; 0.601; 0.602; 0.603; 0.604; 0.605; 0.606; 0.607; 0.608; 0.61; 0.611; 0.612; 0.613; 0.614; 0.615; 0.616; 0.617; 0.618; 0.619; 0.621; 0.622; 0.623; 0.624; 0.625; 0.626; 0.627; 0.628; 0.629; 0.631; 0.632; 0.633; 0.634; 0.635; 0.636; 0.637; 0.638; 0.639; 0.64; 0.642; 0.643; 0.644; 0.645; 0.646; 0.647; 0.648; 0.649; 0.65; 0.652; 0.653; 0.654; 0.655; 0.656; 0.657; 0.658; 0.659; 0.66; 0.662; 0.663; 0.664; 0.665; 0.666; 0.667; 0.668; 0.669; 0.67; 0.671; 0.673; 0.674; 0.675; 0.676; 0.677; 0.678; 0.679; 0.68; 0.681; 0.683; 0.684; 0.685; 0.686; 0.687; 0.688; 0.689; 0.69; 0.691; 0.692; 0.694; 0.695; 0.696; 0.697; 0.698; 0.699; 0.7; 0.701; 0.702; 0.704; 0.705; 0.706; 0.707; 0.708; 0.709; 0.71; 0.711; 0.712; 0.713; 0.715; 0.716; 0.717; 0.718; 0.719; 0.72; 0.721; 0.722; 0.723; 0.725; 0.726; 0.727; 0.728; 0.729; 0.73; 0.731; 0.732; 0.733; 0.735; 0.736; 0.737; 0.738; 0.739; 0.74; 0.741; 0.742; 0.743; 0.744; 0.746; 0.747; 0.748; 0.749; 0.75; 0.751; 0.752; 0.753; 0.754; 0.756; 0.757; 0.758; 0.759; 0.76; 0.761; 0.762; 0.763; 0.764; 0.765; 0.767; 0.768; 0.769; 0.77; 0.771; 0.772; 0.773; 0.774; 0.775; 0.777; 0.778; 0.779; 0.78; 0.781; 0.782; 0.783; 0.784; 0.785; 0.787; 0.788; 0.789; 0.79; 0.791; 0.792; 0.793; 0.794; 0.795; 0.796; 0.798; 0.799; 0.8; 0.801; 0.802; 0.803; 0.804; 0.805; 0.806; 0.808; 0.809; 0.81; 0.811; 0.812; 0.813; 0.814; 0.815; 0.816; 0.817; 0.819; 0.82; 0.821; 0.822; 0.823; 0.824; 0.825; 0.826; 0.827; 0.829; 0.83; 0.831; 0.832; 0.833; 0.834; 0.835; 0.836; 0.837; 0.838; 0.84; 0.841; 0.842; 0.843; 0.844; 0.845; 0.846; 0.847; 0.848; 0.85; 0.851; 0.852; 0.853; 0.854; 0.855; 0.856; 0.857; 0.858; 0.86; 0.861; 0.862; 0.863; 0.864; 0.865; 0.866; 0.867; 0.868; 0.869; 0.871; 0.872; 0.873; 0.874; 0.875; 0.876; 0.877; 0.878; 0.879; 0.881; 0.882; 0.883; 0.884; 0.885; 0.886; 0.887; 0.888; 0.889; 0.89; 0.892; 0.893; 0.894; 0.895; 0.896; 0.897; 0.898; 0.899; 0.9; 0.902; 0.903; 0.904; 0.905; 0.906; 0.907; 0.908; 0.909; 0.91; 0.912; 0.913; 0.914; 0.915; 0.916; 0.917; 0.918; 0.919; 0.92; 0.921; 0.923; 0.924; 0.925; 0.926; 0.927; 0.928; 0.929; 0.93; 0.931; 0.933; 0.934; 0.935; 0.936; 0.937; 0.938; 0.939; 0.94; 0.941; 0.942; 0.944; 0.945; 0.946; 0.947; 0.948; 0.949; 0.95; 0.951; 0.952; 0.954; 0.955; 0.956; 0.957; 0.958; 0.959; 0.96; 0.961; 0.962; 0.963; 0.965; 0.966; 0.967; 0.968; 0.969; 0.97; 0.971; 0.972; 0.973; 0.975; 0.976; 0.977; 0.978; 0.979; 0.98; 0.981; 0.982; 0.983; 0.985; 0.986; 0.987; 0.988; 0.989; 0.99; 0.991; 0.992; 0.993; 0.994; 0.996; 0.997; 0.998; 0.999; 1" keySplines="0 0 1 1; 0 0 1 1; 0 0 1 1; 0 0 1 1; 0 0 1 1; 0 0 1 1; 0 0 1 1; 0 0 1 1; 0 0 1 1; 0 0 1 1; 0 0 1 1; 0 0 1 1; 0 0 1 1; 0 0 1 1; 0 0 1 1; 0 0 1 1; 0 0 1 1; 0 0 1 1; 0 0 1 1; 0 0 1 1; 0 0 1 1; 0 0 1 1; 0 0 1 1; 0 0 1 1; 0 0 1 1; 0 0 1 1; 0 0 1 1; 0 0 1 1; 0 0 1 1; 0 0 1 1; 0 0 1 1; 0 0 1 1; 0 0 1 1; 0 0 1 1; 0 0 1 1; 0 0 1 1; 0 0 1 1; 0 0 1 1; 0 0 1 1; 0 0 1 1; 0 0 1 1; 0 0 1 1; 0 0 1 1; 0 0 1 1; 0 0 1 1; 0 0 1 1; 0 0 1 1; 0 0 1 1; 0 0 1 1; 0 0 1 1; 0.167 0.167 0.833 1; 0.167 0 0.833 0.833; 0 0 1 1; 0 0 1 1; 0 0 1 1; 0 0 1 1; 0 0 1 1; 0 0 1 1; 0 0 1 1; 0 0 1 1; 0 0 1 1; 0 0 1 1; 0 0 1 1; 0 0 1 1; 0 0 1 1; 0 0 1 1; 0 0 1 1; 0 0 1 1; 0 0 1 1; 0 0 1 1; 0 0 1 1; 0 0 1 1; 0 0 1 1; 0 0 1 1; 0 0 1 1; 0 0 1 1; 0 0 1 1; 0 0 1 1; 0 0 1 1; 0 0 1 1; 0 0 1 1; 0 0 1 1; 0 0 1 1; 0 0 1 1; 0 0 1 1; 0 0 1 1; 0 0 1 1; 0 0 1 1; 0 0 1 1; 0 0 1 1; 0 0 1 1; 0 0 1 1; 0 0 1 1; 0 0 1 1; 0 0 1 1; 0 0 1 1; 0 0 1 1; 0 0 1 1; 0 0 1 1; 0 0 1 1; 0 0 1 1; 0.167 0.167 0.833 1; 0.167 0 0.833 0.833; 0 0 1 1; 0 0 1 1; 0 0 1 1; 0 0 1 1; 0 0 1 1; 0 0 1 1; 0 0 1 1; 0 0 1 1; 0 0 1 1; 0 0 1 1; 0 0 1 1; 0 0 1 1; 0 0 1 1; 0 0 1 1; 0 0 1 1; 0 0 1 1; 0 0 1 1; 0 0 1 1; 0 0 1 1; 0 0 1 1; 0 0 1 1; 0 0 1 1; 0 0 1 1; 0 0 1 1; 0 0 1 1; 0 0 1 1; 0 0 1 1; 0 0 1 1; 0 0 1 1; 0 0 1 1; 0 0 1 1; 0 0 1 1; 0 0 1 1; 0 0 1 1; 0 0 1 1; 0 0 1 1; 0 0 1 1; 0 0 1 1; 0 0 1 1; 0 0 1 1; 0 0 1 1; 0 0 1 1; 0 0 1 1; 0 0 1 1; 0 0 1 1; 0 0 1 1; 0 0 1 1; 0 0 1 1; 0 0 1 1; 0.167 0.167 0.833 1; 0.167 0 0.833 0.833; 0 0 1 1; 0 0 1 1; 0 0 1 1; 0 0 1 1; 0 0 1 1; 0 0 1 1; 0 0 1 1; 0 0 1 1; 0 0 1 1; 0 0 1 1; 0 0 1 1; 0 0 1 1; 0 0 1 1; 0 0 1 1; 0 0 1 1; 0 0 1 1; 0 0 1 1; 0 0 1 1; 0 0 1 1; 0 0 1 1; 0 0 1 1; 0 0 1 1; 0 0 1 1; 0 0 1 1; 0 0 1 1; 0 0 1 1; 0 0 1 1; 0 0 1 1; 0 0 1 1; 0 0 1 1; 0 0 1 1; 0 0 1 1; 0 0 1 1; 0 0 1 1; 0 0 1 1; 0 0 1 1; 0 0 1 1; 0 0 1 1; 0 0 1 1; 0 0 1 1; 0 0 1 1; 0 0 1 1; 0 0 1 1; 0 0 1 1; 0 0 1 1; 0 0 1 1; 0 0 1 1; 0 0 1 1; 0 0 1 1; 0.167 0.167 0.833 1; 0.167 0 0.833 0.833; 0 0 1 1; 0 0 1 1; 0 0 1 1; 0 0 1 1; 0 0 1 1; 0 0 1 1; 0 0 1 1; 0 0 1 1; 0 0 1 1; 0 0 1 1; 0 0 1 1; 0 0 1 1; 0 0 1 1; 0 0 1 1; 0 0 1 1; 0 0 1 1; 0 0 1 1; 0 0 1 1; 0 0 1 1; 0 0 1 1; 0 0 1 1; 0 0 1 1; 0 0 1 1; 0 0 1 1; 0 0 1 1; 0 0 1 1; 0 0 1 1; 0 0 1 1; 0 0 1 1; 0 0 1 1; 0 0 1 1; 0 0 1 1; 0 0 1 1; 0 0 1 1; 0 0 1 1; 0 0 1 1; 0 0 1 1; 0 0 1 1; 0 0 1 1; 0 0 1 1; 0 0 1 1; 0 0 1 1; 0 0 1 1; 0 0 1 1; 0 0 1 1; 0 0 1 1; 0 0 1 1; 0 0 1 1; 0 0 1 1; 0.167 0.167 0.833 1; 0.167 0 0.833 0.833; 0 0 1 1; 0 0 1 1; 0 0 1 1; 0 0 1 1; 0 0 1 1; 0 0 1 1; 0 0 1 1; 0 0 1 1; 0 0 1 1; 0 0 1 1; 0 0 1 1; 0 0 1 1; 0 0 1 1; 0 0 1 1; 0 0 1 1; 0 0 1 1; 0 0 1 1; 0 0 1 1; 0 0 1 1; 0 0 1 1; 0 0 1 1; 0 0 1 1; 0 0 1 1; 0 0 1 1; 0 0 1 1; 0 0 1 1; 0 0 1 1; 0 0 1 1; 0 0 1 1; 0 0 1 1; 0 0 1 1; 0 0 1 1; 0 0 1 1; 0 0 1 1; 0 0 1 1; 0 0 1 1; 0 0 1 1; 0 0 1 1; 0 0 1 1; 0 0 1 1; 0 0 1 1; 0 0 1 1; 0 0 1 1; 0 0 1 1; 0 0 1 1; 0 0 1 1; 0 0 1 1; 0 0 1 1; 0 0 1 1; 0.167 0.167 0.833 1; 0.167 0 0.833 0.833; 0 0 1 1; 0 0 1 1; 0 0 1 1; 0 0 1 1; 0 0 1 1; 0 0 1 1; 0 0 1 1; 0 0 1 1; 0 0 1 1; 0 0 1 1; 0 0 1 1; 0 0 1 1; 0 0 1 1; 0 0 1 1; 0 0 1 1; 0 0 1 1; 0 0 1 1; 0 0 1 1; 0 0 1 1; 0 0 1 1; 0 0 1 1; 0 0 1 1; 0 0 1 1; 0 0 1 1; 0 0 1 1; 0 0 1 1; 0 0 1 1; 0 0 1 1; 0 0 1 1; 0 0 1 1; 0 0 1 1; 0 0 1 1; 0 0 1 1; 0 0 1 1; 0 0 1 1; 0 0 1 1; 0 0 1 1; 0 0 1 1; 0 0 1 1; 0 0 1 1; 0 0 1 1; 0 0 1 1; 0 0 1 1; 0 0 1 1; 0 0 1 1; 0 0 1 1; 0 0 1 1; 0 0 1 1; 0 0 1 1; 0.167 0.167 0.833 1; 0.167 0 0.833 0.833; 0 0 1 1; 0 0 1 1; 0 0 1 1; 0 0 1 1; 0 0 1 1; 0 0 1 1; 0 0 1 1; 0 0 1 1; 0 0 1 1; 0 0 1 1; 0 0 1 1; 0 0 1 1; 0 0 1 1; 0 0 1 1; 0 0 1 1; 0 0 1 1; 0 0 1 1; 0 0 1 1; 0 0 1 1; 0 0 1 1; 0 0 1 1; 0 0 1 1; 0 0 1 1; 0 0 1 1; 0 0 1 1; 0 0 1 1; 0 0 1 1; 0 0 1 1; 0 0 1 1; 0 0 1 1; 0 0 1 1; 0 0 1 1; 0 0 1 1; 0 0 1 1; 0 0 1 1; 0 0 1 1; 0 0 1 1; 0 0 1 1; 0 0 1 1; 0 0 1 1; 0 0 1 1; 0 0 1 1; 0 0 1 1; 0 0 1 1; 0 0 1 1; 0 0 1 1; 0 0 1 1; 0 0 1 1; 0 0 1 1; 0.167 0.167 0.833 1; 0.167 0 0.833 0.833; 0 0 1 1; 0 0 1 1; 0 0 1 1; 0 0 1 1; 0 0 1 1; 0 0 1 1; 0 0 1 1; 0 0 1 1; 0 0 1 1; 0 0 1 1; 0 0 1 1; 0 0 1 1; 0 0 1 1; 0 0 1 1; 0 0 1 1; 0 0 1 1; 0 0 1 1; 0 0 1 1; 0 0 1 1; 0 0 1 1; 0 0 1 1; 0 0 1 1; 0 0 1 1; 0 0 1 1; 0 0 1 1; 0 0 1 1; 0 0 1 1; 0 0 1 1; 0 0 1 1; 0 0 1 1; 0 0 1 1; 0 0 1 1; 0 0 1 1; 0 0 1 1; 0 0 1 1; 0 0 1 1; 0 0 1 1; 0 0 1 1; 0 0 1 1; 0 0 1 1; 0 0 1 1; 0 0 1 1; 0 0 1 1; 0 0 1 1; 0 0 1 1; 0 0 1 1; 0 0 1 1; 0 0 1 1; 0 0 1 1; 0.167 0.167 0.833 1; 0.167 0 0.833 0.833; 0 0 1 1; 0 0 1 1; 0 0 1 1; 0 0 1 1; 0 0 1 1; 0 0 1 1; 0 0 1 1; 0 0 1 1; 0 0 1 1; 0 0 1 1; 0 0 1 1; 0 0 1 1; 0 0 1 1; 0 0 1 1; 0 0 1 1; 0 0 1 1; 0 0 1 1; 0 0 1 1; 0 0 1 1; 0 0 1 1; 0 0 1 1; 0 0 1 1; 0 0 1 1; 0 0 1 1; 0 0 1 1; 0 0 1 1; 0 0 1 1; 0 0 1 1; 0 0 1 1; 0 0 1 1; 0 0 1 1; 0 0 1 1; 0 0 1 1; 0 0 1 1; 0 0 1 1; 0 0 1 1; 0 0 1 1; 0 0 1 1; 0 0 1 1; 0 0 1 1; 0 0 1 1; 0 0 1 1; 0 0 1 1; 0 0 1 1; 0 0 1 1; 0 0 1 1; 0 0 1 1; 0 0 1 1; 0 0 1 1; 0.167 0.167 0.833 1; 0.167 0 0.833 0.833; 0 0 1 1; 0 0 1 1; 0 0 1 1; 0 0 1 1; 0 0 1 1; 0 0 1 1; 0 0 1 1; 0 0 1 1; 0 0 1 1; 0 0 1 1; 0 0 1 1; 0 0 1 1; 0 0 1 1; 0 0 1 1; 0 0 1 1; 0 0 1 1; 0 0 1 1; 0 0 1 1; 0 0 1 1; 0 0 1 1; 0 0 1 1; 0 0 1 1; 0 0 1 1; 0 0 1 1; 0 0 1 1; 0 0 1 1; 0 0 1 1; 0 0 1 1; 0 0 1 1; 0 0 1 1; 0 0 1 1; 0 0 1 1; 0 0 1 1; 0 0 1 1; 0 0 1 1; 0 0 1 1; 0 0 1 1; 0 0 1 1; 0 0 1 1; 0 0 1 1; 0 0 1 1; 0 0 1 1; 0 0 1 1; 0 0 1 1; 0 0 1 1; 0 0 1 1; 0 0 1 1; 0 0 1 1; 0 0 1 1; 0.167 0.167 0.833 1; 0.167 0 0.833 0.833; 0 0 1 1; 0 0 1 1; 0 0 1 1; 0 0 1 1; 0 0 1 1; 0 0 1 1; 0 0 1 1; 0 0 1 1; 0 0 1 1; 0 0 1 1; 0 0 1 1; 0 0 1 1; 0 0 1 1; 0 0 1 1; 0 0 1 1; 0 0 1 1; 0 0 1 1; 0 0 1 1; 0 0 1 1; 0 0 1 1; 0 0 1 1; 0 0 1 1; 0 0 1 1; 0 0 1 1; 0 0 1 1; 0 0 1 1; 0 0 1 1; 0 0 1 1; 0 0 1 1; 0 0 1 1; 0 0 1 1; 0 0 1 1; 0 0 1 1; 0 0 1 1; 0 0 1 1; 0 0 1 1; 0 0 1 1; 0 0 1 1; 0 0 1 1; 0 0 1 1; 0 0 1 1; 0 0 1 1; 0 0 1 1; 0 0 1 1; 0 0 1 1; 0 0 1 1; 0 0 1 1; 0 0 1 1; 0 0 1 1; 0.167 0.167 0.833 1; 0.167 0 0.833 0.833; 0 0 1 1; 0 0 1 1; 0 0 1 1; 0 0 1 1; 0 0 1 1; 0 0 1 1; 0 0 1 1; 0 0 1 1; 0 0 1 1; 0 0 1 1; 0 0 1 1; 0 0 1 1; 0 0 1 1; 0 0 1 1; 0 0 1 1; 0 0 1 1; 0 0 1 1; 0 0 1 1; 0 0 1 1; 0 0 1 1; 0 0 1 1; 0 0 1 1; 0 0 1 1; 0 0 1 1; 0 0 1 1; 0 0 1 1; 0 0 1 1; 0 0 1 1; 0 0 1 1; 0 0 1 1; 0 0 1 1; 0 0 1 1; 0 0 1 1; 0 0 1 1; 0 0 1 1; 0 0 1 1; 0 0 1 1; 0 0 1 1; 0 0 1 1; 0 0 1 1; 0 0 1 1; 0 0 1 1; 0 0 1 1; 0 0 1 1; 0 0 1 1; 0 0 1 1; 0 0 1 1; 0 0 1 1; 0 0 1 1; 0.167 0.167 0.833 1; 0.167 0 0.833 0.833; 0 0 1 1; 0 0 1 1; 0 0 1 1; 0 0 1 1; 0 0 1 1; 0 0 1 1; 0 0 1 1; 0 0 1 1; 0 0 1 1; 0 0 1 1; 0 0 1 1; 0 0 1 1; 0 0 1 1; 0 0 1 1; 0 0 1 1; 0 0 1 1; 0 0 1 1; 0 0 1 1; 0 0 1 1; 0 0 1 1; 0 0 1 1; 0 0 1 1; 0 0 1 1; 0 0 1 1; 0 0 1 1; 0 0 1 1; 0 0 1 1; 0 0 1 1; 0 0 1 1; 0 0 1 1; 0 0 1 1; 0 0 1 1; 0 0 1 1; 0 0 1 1; 0 0 1 1; 0 0 1 1; 0 0 1 1; 0 0 1 1; 0 0 1 1; 0 0 1 1; 0 0 1 1; 0 0 1 1; 0 0 1 1; 0 0 1 1; 0 0 1 1; 0 0 1 1; 0 0 1 1; 0 0 1 1; 0 0 1 1; 0.167 0.167 0.833 1; 0.167 0 0.833 0.833; 0 0 1 1; 0 0 1 1; 0 0 1 1; 0 0 1 1; 0 0 1 1; 0 0 1 1; 0 0 1 1; 0 0 1 1; 0 0 1 1; 0 0 1 1; 0 0 1 1; 0 0 1 1; 0 0 1 1; 0 0 1 1; 0 0 1 1; 0 0 1 1; 0 0 1 1; 0 0 1 1; 0 0 1 1; 0 0 1 1; 0 0 1 1; 0 0 1 1; 0 0 1 1; 0 0 1 1; 0 0 1 1; 0 0 1 1; 0 0 1 1; 0 0 1 1; 0 0 1 1; 0 0 1 1; 0 0 1 1; 0 0 1 1; 0 0 1 1; 0 0 1 1; 0 0 1 1; 0 0 1 1; 0 0 1 1; 0 0 1 1; 0 0 1 1; 0 0 1 1; 0 0 1 1; 0 0 1 1; 0 0 1 1; 0 0 1 1; 0 0 1 1; 0 0 1 1; 0 0 1 1; 0 0 1 1; 0 0 1 1; 0.167 0.167 0.833 1; 0.167 0 0.833 0.833; 0 0 1 1; 0 0 1 1; 0 0 1 1; 0 0 1 1; 0 0 1 1; 0 0 1 1; 0 0 1 1; 0 0 1 1; 0 0 1 1; 0 0 1 1; 0 0 1 1; 0 0 1 1; 0 0 1 1; 0 0 1 1; 0 0 1 1; 0 0 1 1; 0 0 1 1; 0 0 1 1; 0 0 1 1; 0 0 1 1; 0 0 1 1; 0 0 1 1; 0 0 1 1; 0 0 1 1; 0 0 1 1; 0 0 1 1; 0 0 1 1; 0 0 1 1; 0 0 1 1; 0 0 1 1; 0 0 1 1; 0 0 1 1; 0 0 1 1; 0 0 1 1; 0 0 1 1; 0 0 1 1; 0 0 1 1; 0 0 1 1; 0 0 1 1; 0 0 1 1; 0 0 1 1; 0 0 1 1; 0 0 1 1; 0 0 1 1; 0 0 1 1; 0 0 1 1; 0 0 1 1; 0 0 1 1; 0 0 1 1; 0.167 0.167 0.833 1; 0.167 0 0.833 0.833; 0 0 1 1; 0 0 1 1; 0 0 1 1; 0 0 1 1; 0 0 1 1; 0 0 1 1; 0 0 1 1; 0 0 1 1; 0 0 1 1; 0 0 1 1; 0 0 1 1; 0 0 1 1; 0 0 1 1; 0 0 1 1; 0 0 1 1; 0 0 1 1; 0 0 1 1; 0 0 1 1; 0 0 1 1; 0 0 1 1; 0 0 1 1; 0 0 1 1; 0 0 1 1; 0 0 1 1; 0 0 1 1; 0 0 1 1; 0 0 1 1; 0 0 1 1; 0 0 1 1; 0 0 1 1; 0 0 1 1; 0 0 1 1; 0 0 1 1; 0 0 1 1; 0 0 1 1; 0 0 1 1; 0 0 1 1; 0 0 1 1; 0 0 1 1; 0 0 1 1; 0 0 1 1; 0 0 1 1; 0 0 1 1; 0 0 1 1; 0 0 1 1; 0 0 1 1; 0 0 1 1; 0 0 1 1; 0 0 1 1; 0.167 0.167 0.833 1; 0.167 0 0.833 0.833; 0 0 1 1; 0 0 1 1; 0 0 1 1; 0 0 1 1; 0 0 1 1; 0 0 1 1; 0 0 1 1; 0 0 1 1; 0 0 1 1; 0 0 1 1; 0 0 1 1; 0 0 1 1; 0 0 1 1; 0 0 1 1; 0 0 1 1; 0 0 1 1; 0 0 1 1; 0 0 1 1; 0 0 1 1; 0 0 1 1; 0 0 1 1; 0 0 1 1; 0 0 1 1; 0 0 1 1; 0 0 1 1; 0 0 1 1; 0 0 1 1; 0 0 1 1; 0 0 1 1; 0 0 1 1; 0 0 1 1; 0 0 1 1; 0 0 1 1; 0 0 1 1; 0 0 1 1; 0 0 1 1" fill="freeze" /><g transform="scale(1,1) translate(-1172.647,-341.71)"><g id="Group 2" transform="matrix(1,0,0,1,0,0)"><g id="Group 1" transform="matrix(1,0,0,1,0,0)"><g id="Group 9" transform="matrix(1,0,0,1,1224.647,1041.733)"><path fill="#f7bb00" fill-opacity="1" d="M578.124,229.222C582.233,252.501,566.69,274.695,543.425,278.803L-415.216,447.911C-438.481,452.015,-460.698,436.473,-464.797,413.212L-578.126,-229.226C-582.225,-252.5,-566.701,-274.691,-543.427,-278.79L415.231,-447.911C438.496,-452.015,460.696,-436.481,464.804,-413.207L578.124,229.222Z" /></g><g id="Group 8" transform="matrix(1,0,0,1,754.358,835.456)"><path fill="#88868b" fill-opacity="1" d="M46.812,-8.263C51.387,17.594,34.117,42.257,8.268,46.824C-17.58,51.382,-42.256,34.112,-46.814,8.259C-51.381,-17.598,-34.11,-42.257,-8.244,-46.824C17.605,-51.382,42.254,-34.12,46.812,-8.263Z" /></g><g id="Group 7" transform="matrix(1,0,0,1,754.365,835.453)"><path fill="#2f2b2f" fill-opacity="1" d="M21.979,-3.882C24.121,8.262,16.011,19.837,3.889,21.979C-8.268,24.121,-19.835,16.02,-21.977,3.876C-24.128,-8.259,-16.008,-19.834,-3.869,-21.977C8.271,-24.128,19.845,-16.017,21.979,-3.882Z" /></g><g id="Group 6" transform="matrix(1,0,0,1,1584.637,684.374)"><path fill="#88868b" fill-opacity="1" d="M46.822,-8.26C51.38,17.602,34.118,42.255,8.27,46.822C-17.596,51.385,-42.264,34.119,-46.822,8.257C-51.38,-17.596,-34.126,-42.263,-8.26,-46.821C17.597,-51.388,42.255,-34.113,46.822,-8.26Z" /></g><g id="Group 5" transform="matrix(1,0,0,1,1584.64,684.369)"><path fill="#2f2b2f" fill-opacity="1" d="M21.984,-3.873C24.118,8.262,16.007,19.842,3.876,21.98C-8.263,24.127,-19.847,16.02,-21.981,3.881C-24.123,-8.263,-16.021,-19.839,-3.873,-21.981C8.249,-24.123,19.851,-16.012,21.984,-3.873Z" /></g><g id="Group 4" transform="matrix(1,0,0,1,1176.312,344.765)"><path fill="#1f140f" fill-opacity="1" d="M21.973,-3.883C24.124,8.261,16.032,19.85,3.892,21.983C-8.247,24.121,-19.832,16.015,-21.974,3.88C-24.125,-8.264,-16.014,-19.844,-3.866,-21.982C8.256,-24.124,19.848,-16.01,21.973,-3.883Z" /></g><g id="Group 3" transform="matrix(1,0,0,1,1165.623,579.116)"><g id="Group 1"><path fill="#1f140f" fill-opacity="1" d="M-414.872,241.474C-416.662,241.544,-418.495,240.936,-419.932,239.627C-422.85,236.987,-423.063,232.469,-420.418,229.56L5.421,-239.146C7.942,-241.91,12.156,-242.268,15.101,-239.958L419.552,77.66C422.646,80.093,423.166,84.577,420.759,87.68C418.308,90.765,413.83,91.316,410.736,88.883L11.513,-224.64L-409.856,239.151C-411.187,240.627,-413.012,241.417,-414.872,241.474Z" /></g></g><g id="Group 2" transform="matrix(1,0,0,1,0,0)"><g id="Group 11" transform="matrix(1,0,0,1,1276.832,1337.152)"><path fill="#fbd03f" fill-opacity="1" d="M-526.495,63.574L-516.251,121.363L526.495,-63.565L516.25,-121.363L-526.495,63.574Z" /></g><g id="Group 10" transform="matrix(1,0,0,1,779.082,1424.516)"><path fill="#1f140f" fill-opacity="1" d="M-28.744,-23.79L-18.5,33.999L-13.828,33.17L28.744,-33.999L-28.744,-23.79Z" /></g><g id="Group 9" transform="matrix(1,0,0,1,870.468,1409.224)"><path fill="#1f140f" fill-opacity="1" d="M14.189,27.285L-56.771,39.875L-14.189,-27.294L56.771,-39.875L14.189,27.285Z" /></g><g id="Group 8" transform="matrix(1,0,0,1,989.867,1388.042)"><path fill="#1f140f" fill-opacity="1" d="M14.185,27.301L-56.784,39.872L-14.176,-27.283L56.784,-39.872L14.185,27.301Z" /></g><g id="Group 7" transform="matrix(1,0,0,1,1109.262,1366.877)"><path fill="#1f140f" fill-opacity="1" d="M14.194,27.29L-56.766,39.875L-14.194,-27.303L56.766,-39.875L14.194,27.29Z" /></g><g id="Group 6" transform="matrix(1,0,0,1,1228.666,1345.697)"><path fill="#1f140f" fill-opacity="1" d="M14.185,27.29L-56.775,39.875L-14.194,-27.294L56.775,-39.875L14.185,27.29Z" /></g><g id="Group 5" transform="matrix(1,0,0,1,1348.074,1324.519)"><path fill="#1f140f" fill-opacity="1" d="M14.18,27.296L-56.779,39.881L-14.18,-27.292L56.779,-39.881L14.18,27.296Z" /></g><g id="Group 4" transform="matrix(1,0,0,1,1467.469,1303.345)"><path fill="#1f140f" fill-opacity="1" d="M14.189,27.294L-56.771,39.879L-14.172,-27.299L56.771,-39.879L14.189,27.294Z" /></g><g id="Group 3" transform="matrix(1,0,0,1,1586.868,1282.171)"><path fill="#1f140f" fill-opacity="1" d="M14.185,27.283L-56.766,39.877L-14.185,-27.296L56.766,-39.877L14.185,27.283Z" /></g><g id="Group 2" transform="matrix(1,0,0,1,1706.271,1260.99)"><path fill="#1f140f" fill-opacity="1" d="M14.176,27.292L-56.766,39.881L-14.194,-27.287L56.766,-39.881L14.176,27.292Z" /></g><g id="Group 1" transform="matrix(1,0,0,1,1785.888,1258.101)"><path fill="#1f140f" fill-opacity="1" d="M10.394,-21.586L-16.979,21.586L16.979,15.56L10.394,-21.586Z" /></g></g><g id="Group 1" transform="matrix(1,0,0,1,0,0)"><g id="Group 3" transform="matrix(1,0,0,1,0,0)"><g id="Group 5" transform="matrix(1,0,0,1,972.257,1112.687)"><path fill="#1f140f" fill-opacity="1" d="M-63.612,-46.774L-8.133,-56.326L-4.254,-33.828L-13.674,-32.206L-7.185,5.483C-5.982,12.461,-4.629,18.093,-3.108,22.387C-1.587,26.676,0.141,29.938,2.085,32.177C4.025,34.421,6.149,35.818,8.463,36.378C10.773,36.942,13.325,36.973,16.12,36.493C18.796,36.034,21.145,35.241,23.164,34.113C25.183,32.989,26.774,31.102,27.938,28.444C29.098,25.79,29.697,22.153,29.741,17.538C29.781,12.918,29.155,6.831,27.85,-0.733L21.48,-37.716L12.056,-36.094L8.089,-59.121L59.733,-68.016L63.612,-45.518L54.188,-43.896L61.487,-1.5C65.053,19.204,63.422,35.113,56.599,46.23C49.766,57.352,38.155,64.316,21.753,67.141C3.976,69.596,-10.323,66.886,-21.145,58.991C-31.962,51.096,-39.09,37.207,-42.515,17.314L-49.934,-25.775L-59.702,-24.095L-63.612,-46.774Z" /></g><g id="Group 4" transform="matrix(1,0,0,1,1110.617,1092.934)"><path fill="#1f140f" fill-opacity="1" d="M65.862,-49.982L54.352,-47.998L71.478,51.446L33.966,57.908L-21.972,-0.899L-14.399,43.066L-0.963,40.752L2.911,63.255L-50.65,72.481L-54.525,49.978L-44.228,48.202L-57.478,-28.74L-67.599,-26.994L-71.478,-49.493L-21.407,-58.115L32.537,-1.481L25.388,-43.009L13.354,-40.937L9.475,-63.436L61.983,-72.481L65.862,-49.982Z" /></g><g id="Group 3" transform="matrix(1,0,0,1,1246.866,1074.627)"><path fill="#1f140f" fill-opacity="1" d="M24.055,-10.032C23.253,-14.682,21.983,-19.109,20.246,-23.296C18.501,-27.492,16.292,-31.089,13.621,-34.104C10.95,-37.115,7.776,-39.354,4.113,-40.813C0.446,-42.281,-3.711,-42.612,-8.366,-41.814L-14.996,-40.672L-1.952,35.044L4.677,33.902C9.332,33.104,13.132,31.368,16.085,28.701C19.038,26.038,21.26,22.755,22.741,18.845C24.222,14.94,25.046,10.513,25.218,5.572C25.385,0.635,24.998,-4.566,24.055,-10.032ZM-44.538,66.266L-48.536,43.066L-37.719,41.206L-50.758,-34.51L-61.575,-32.65L-65.542,-55.677L-12.333,-64.841C-1.75,-66.662,7.912,-66.736,16.64,-65.07C25.377,-63.399,33.012,-60.406,39.566,-56.091C46.116,-51.762,51.499,-46.253,55.709,-39.553C59.914,-32.853,62.739,-25.315,64.18,-16.944C67.627,3.064,64.529,19.493,54.888,32.351C45.248,45.213,29.604,53.5,7.974,57.225L-44.538,66.266Z" /></g><g id="Group 2" transform="matrix(1,0,0,1,1370.036,1049.231)"><path fill="#1f140f" fill-opacity="1" d="M-63.103,-51.911L42.098,-70.032L48.741,-31.48L18.56,-26.278L15.884,-41.803L-12.031,-36.998L-7.884,-12.926L25.265,-18.635L29.258,4.569L-3.89,10.277L1.007,38.718L28.927,33.908L26.133,17.687L56.314,12.485L63.103,51.911L-42.099,70.032L-46.097,46.833L-35.103,44.937L-48.142,-30.779L-59.136,-28.883L-63.103,-51.911Z" /></g><g id="Group 1" transform="matrix(1,0,0,1,1490.711,1032.883)"><path fill="#1f140f" fill-opacity="1" d="M-20.237,-40.377L-15.132,-10.72L-7.281,-12.073C-2.163,-12.955,1.703,-14.846,4.321,-17.751C6.93,-20.66,7.839,-24.437,7.036,-29.092C6.137,-34.324,4.096,-37.984,0.922,-40.073C-2.247,-42.162,-6.395,-42.762,-11.513,-41.88L-20.237,-40.377ZM-69.853,-55.183L-13.153,-64.951C-3.032,-66.692,5.325,-67.177,11.924,-66.401C18.527,-65.616,23.883,-63.903,27.991,-61.262C32.099,-58.613,35.136,-55.219,37.111,-51.062C39.082,-46.914,40.501,-42.338,41.365,-37.335C41.947,-33.963,41.841,-30.714,41.065,-27.589C40.285,-24.459,38.95,-21.626,37.05,-19.082C35.154,-16.534,32.791,-14.272,29.957,-12.293C27.122,-10.305,23.949,-8.767,20.423,-7.683C23.526,-7.74,26.572,-7.278,29.552,-6.29C32.537,-5.307,35.269,-3.892,37.742,-2.045C40.219,-0.193,42.331,2.011,44.094,4.585C45.849,7.155,47.002,10.011,47.545,13.149C48.184,16.874,48.973,19.731,49.916,21.723C50.859,23.72,52.142,24.576,53.769,24.298C56.444,23.835,57.468,21.745,56.824,18.02L55.832,12.263L67.522,10.249L69.175,19.845C69.797,23.451,69.991,27.013,69.757,30.526C69.524,34.04,68.638,37.239,67.104,40.144C65.565,43.04,63.299,45.552,60.319,47.686C57.33,49.82,53.398,51.305,48.51,52.147C36.996,54.126,27.983,52.747,21.481,47.999C14.975,43.256,10.84,35.762,9.077,25.527C8.394,21.573,7.662,18.347,6.873,15.843C6.079,13.348,4.955,11.483,3.483,10.227C2.007,8.988,0.062,8.279,-2.367,8.098C-4.796,7.917,-7.925,8.16,-11.764,8.821L-7.109,35.86L3.536,34.026L7.503,57.053L-48.849,66.76L-52.816,43.732L-43.048,42.048L-56.148,-34.016L-65.917,-32.332L-69.853,-55.183Z" /></g></g><g id="Group 2" transform="matrix(1,0,0,1,0,0)"><g id="Group 4" transform="matrix(1,0,0,1,981.777,940.402)"><path fill="#1f140f" fill-opacity="1" d="M-72.426,106.059L-83.799,40.035L-35.068,31.643C-34.133,37.056,-32.154,41.251,-29.117,44.24C-26.093,47.225,-22.704,49.38,-18.971,50.716C-15.229,52.056,-11.424,52.753,-7.549,52.801C-3.674,52.854,-0.338,52.633,2.461,52.153C4.726,51.761,7.147,51.17,9.704,50.368C12.265,49.565,14.547,48.499,16.571,47.163C18.59,45.827,20.199,44.201,21.398,42.284C22.593,40.371,22.954,38.012,22.474,35.217C21.901,31.902,18.939,29.58,13.583,28.249C8.231,26.926,1.655,25.85,-6.121,25.035C-13.91,24.215,-22.4,23.21,-31.604,22.002C-40.808,20.803,-49.522,18.48,-57.756,15.042C-65.99,11.604,-73.219,6.689,-79.448,0.297C-85.672,-6.09,-89.75,-14.875,-91.676,-26.054C-93.329,-35.659,-92.725,-44.4,-89.851,-52.268C-86.981,-60.136,-82.833,-66.875,-77.416,-72.487C-71.999,-78.094,-65.858,-82.661,-58.999,-86.183C-52.149,-89.696,-45.48,-92.015,-39.018,-93.13C-33.605,-94.06,-28.103,-94.509,-22.527,-94.483C-16.947,-94.452,-11.534,-93.813,-6.28,-92.561C-1.03,-91.309,3.859,-89.317,8.377,-86.593C12.895,-83.856,16.885,-80.271,20.345,-75.837L19.172,-98.296L64.239,-106.059L75.568,-40.291L28.142,-32.128C27.3,-37.012,25.678,-41.182,23.289,-44.642C20.891,-48.098,17.942,-50.87,14.433,-52.964C10.924,-55.058,7.006,-56.407,2.677,-57.011C-1.651,-57.615,-6.09,-57.527,-10.63,-56.742C-12.552,-56.412,-14.51,-55.76,-16.502,-54.785C-18.49,-53.811,-20.302,-52.598,-21.946,-51.148C-23.581,-49.698,-24.82,-48.006,-25.653,-46.057C-26.486,-44.117,-26.706,-42.01,-26.314,-39.74C-25.534,-35.2,-22.311,-31.89,-16.647,-29.805C-10.983,-27.72,-4.084,-26.032,4.053,-24.736C12.19,-23.445,20.979,-22.029,30.408,-20.513C39.85,-18.988,48.794,-16.611,57.266,-13.398C65.729,-10.18,73.13,-5.609,79.456,0.315C85.782,6.239,89.832,14.355,91.609,24.661C93.385,34.967,92.733,43.981,89.656,51.704C86.579,59.431,82.061,66.095,76.106,71.711C70.146,77.322,63.23,81.792,55.348,85.129C47.471,88.462,39.608,90.811,31.744,92.164C25.106,93.306,18.872,93.663,13.036,93.227C7.209,92.791,1.827,91.834,-3.101,90.344C-8.038,88.854,-12.544,86.98,-16.621,84.706C-20.694,82.445,-24.211,80.042,-27.169,77.494L-26.578,98.159L-72.426,106.059Z" /></g><g id="Group 3" transform="matrix(1,0,0,1,1123.094,915.358)"><path fill="#1f140f" fill-opacity="1" d="M-59.266,-84.082L27.722,-99.061L33.677,-64.471L17.438,-61.676L37.018,52.032L53.262,49.237L59.266,84.083L-27.722,99.061L-33.726,64.216L-17.218,61.373L-36.798,-52.336L-53.31,-49.493L-59.266,-84.082Z" /></g><g id="Group 2" transform="matrix(1,0,0,1,1255.07,887.515)"><path fill="#1f140f" fill-opacity="1" d="M82.037,-103.304L93.771,-35.178L55.254,-28.544L49.475,-62.08L27.47,-58.289L47.051,55.42L68.795,51.673L74.799,86.518L-22.666,103.304L-28.67,68.463L-7.185,64.76L-26.765,-48.949L-49.299,-45.069L-43.525,-11.533L-82.037,-4.899L-93.771,-73.025L82.037,-103.304Z" /></g><g id="Group 1" transform="matrix(1,0,0,1,1442.347,860.375)"><path fill="#1f140f" fill-opacity="1" d="M-94.767,-77.967L63.224,-105.177L73.199,-47.269L27.867,-39.463L23.847,-62.781L-18.073,-55.561L-11.844,-19.406L37.94,-27.98L43.943,6.865L-5.84,15.439L1.512,58.148L43.432,50.928L39.236,26.56L84.568,18.754L94.767,77.966L-63.224,105.177L-69.227,70.331L-52.724,67.488L-72.309,-46.22L-88.812,-43.377L-94.767,-77.967Z" /></g></g><g id="Group 1" transform="matrix(1,0,0,1,0,0)"><g id="Group 12" transform="matrix(1,0,0,1,944.689,1226.049)"><path fill="#1f140f" fill-opacity="1" d="M27.294,14.447C26.192,16.135,24.924,17.784,23.491,19.397C22.058,21.006,20.44,22.491,18.642,23.844C16.843,25.197,14.846,26.366,12.664,27.362C10.482,28.349,8.115,29.063,5.576,29.504C1.415,30.218,-2.464,30.228,-6.061,29.54C-9.658,28.853,-12.857,27.502,-15.661,25.497C-18.473,23.492,-20.827,20.878,-22.749,17.651C-24.671,14.425,-26.006,10.63,-26.76,6.266C-27.527,1.796,-27.47,-2.352,-26.575,-6.169C-25.68,-9.982,-24.274,-13.332,-22.361,-16.202C-20.453,-19.071,-18.218,-21.395,-15.661,-23.176C-13.104,-24.953,-10.557,-26.063,-8.009,-26.499C-6.087,-26.83,-4.368,-26.887,-2.856,-26.662C-1.349,-26.441,-0.048,-26.12,1.045,-25.688C2.13,-25.265,3.002,-24.798,3.646,-24.295C4.298,-23.788,4.721,-23.449,4.911,-23.268L5.947,-27.941L18.188,-30.048L22.001,-7.915L8.05,-5.513C7.776,-6.747,7.366,-7.932,6.793,-9.065C6.22,-10.193,5.537,-11.164,4.73,-11.962C3.919,-12.76,2.967,-13.342,1.861,-13.712C0.755,-14.087,-0.502,-14.152,-1.904,-13.91C-3.31,-13.668,-4.513,-13.046,-5.518,-12.045C-6.523,-11.035,-7.304,-9.766,-7.868,-8.228C-8.432,-6.685,-8.772,-4.94,-8.895,-2.996C-9.014,-1.043,-8.886,0.994,-8.52,3.123C-8.19,5.045,-7.63,6.848,-6.827,8.527C-6.025,10.211,-5.037,11.643,-3.843,12.829C-2.644,14.01,-1.277,14.888,0.261,15.452C1.804,16.016,3.509,16.139,5.383,15.813C6.992,15.54,8.459,14.91,9.79,13.931C11.117,12.952,12.255,11.916,13.189,10.823C14.124,9.721,14.868,8.712,15.437,7.782C15.992,6.856,16.341,6.279,16.456,6.041L27.294,14.447Z" /></g><g id="Group 11" transform="matrix(1,0,0,1,999.026,1217.761)"><path fill="#1f140f" fill-opacity="1" d="M3.007,16.44C4.254,16.224,5.291,15.642,6.124,14.699C6.948,13.751,7.596,12.517,8.05,10.992C8.513,9.467,8.75,7.69,8.777,5.649C8.799,3.617,8.597,1.373,8.178,-1.069C7.768,-3.458,7.217,-5.644,6.529,-7.641C5.837,-9.633,5.008,-11.339,4.043,-12.75C3.078,-14.165,1.967,-15.218,0.728,-15.91C-0.515,-16.611,-1.89,-16.827,-3.398,-16.567C-4.592,-16.364,-5.602,-15.773,-6.426,-14.803C-7.246,-13.829,-7.88,-12.556,-8.334,-10.982C-8.78,-9.408,-9.031,-7.575,-9.071,-5.481C-9.111,-3.383,-8.925,-1.148,-8.511,1.241C-8.075,3.798,-7.457,6.055,-6.668,8.03C-5.87,10.005,-4.971,11.661,-3.962,12.984C-2.961,14.307,-1.859,15.268,-0.66,15.867C0.539,16.457,1.759,16.652,3.007,16.44ZM5.114,28.677C1.058,29.373,-2.781,29.417,-6.417,28.813C-10.049,28.21,-13.307,26.927,-16.19,24.961C-19.068,22.995,-21.506,20.323,-23.503,16.951C-25.5,13.579,-26.923,9.449,-27.765,4.561C-28.492,0.356,-28.488,-3.603,-27.765,-7.315C-27.038,-11.026,-25.684,-14.35,-23.705,-17.281C-21.717,-20.221,-19.17,-22.663,-16.058,-24.62C-12.941,-26.573,-9.362,-27.9,-5.306,-28.596C-0.528,-29.42,3.734,-29.447,7.481,-28.676C11.223,-27.9,14.472,-26.454,17.214,-24.329C19.96,-22.209,22.204,-19.449,23.936,-16.06C25.668,-12.67,26.917,-8.791,27.666,-4.427C28.428,-0.001,28.512,4.062,27.921,7.774C27.33,11.486,26.079,14.761,24.157,17.613C22.244,20.456,19.691,22.823,16.513,24.701C13.33,26.588,9.531,27.914,5.114,28.677Z" /></g><g id="Group 10" transform="matrix(1,0,0,1,1057.082,1207.387)"><path fill="#1f140f" fill-opacity="1" d="M29.421,-22.327L24.281,-21.44L31.934,22.983L15.174,25.87L-9.814,-0.401L-6.433,19.236L-0.43,18.205L1.303,28.259L-22.624,32.381L-24.356,22.327L-19.763,21.533L-25.683,-12.836L-30.201,-12.056L-31.934,-22.11L-9.563,-25.963L14.54,-0.666L11.344,-19.214L5.966,-18.284L4.234,-28.339L27.689,-32.381L29.421,-22.327Z" /></g><g id="Group 9" transform="matrix(1,0,0,1,1119.602,1197.267)"><path fill="#1f140f" fill-opacity="1" d="M-21.545,31.548L-24.93,11.91L-10.432,9.411C-10.154,11.024,-9.564,12.267,-8.665,13.162C-7.761,14.044,-6.752,14.687,-5.641,15.088C-4.535,15.485,-3.402,15.687,-2.242,15.705C-1.091,15.718,-0.1,15.657,0.729,15.516C1.408,15.397,2.122,15.221,2.889,14.983C3.647,14.745,4.33,14.427,4.929,14.026C5.529,13.629,6.005,13.149,6.362,12.576C6.724,12.008,6.829,11.307,6.688,10.478C6.516,9.491,5.63,8.798,4.039,8.406C2.443,8.009,0.495,7.687,-1.823,7.449C-4.137,7.202,-6.663,6.903,-9.401,6.546C-12.138,6.184,-14.73,5.497,-17.181,4.474C-19.636,3.452,-21.782,1.988,-23.634,0.088C-25.49,-1.812,-26.698,-4.426,-27.271,-7.754C-27.765,-10.61,-27.584,-13.211,-26.729,-15.547C-25.878,-17.892,-24.639,-19.894,-23.03,-21.56C-21.421,-23.231,-19.592,-24.592,-17.551,-25.637C-15.514,-26.686,-13.535,-27.369,-11.609,-27.704C-9.996,-27.982,-8.36,-28.114,-6.703,-28.105C-5.046,-28.096,-3.433,-27.907,-1.868,-27.537C-0.303,-27.162,1.147,-26.571,2.487,-25.76C3.832,-24.945,5.018,-23.878,6.054,-22.556L5.701,-29.238L19.106,-31.548L22.473,-11.986L8.368,-9.557C8.121,-11.011,7.636,-12.255,6.926,-13.282C6.216,-14.304,5.335,-15.133,4.295,-15.759C3.251,-16.376,2.082,-16.781,0.795,-16.962C-0.492,-17.134,-1.814,-17.112,-3.163,-16.878C-3.736,-16.781,-4.314,-16.588,-4.905,-16.301C-5.5,-16.006,-6.042,-15.649,-6.531,-15.217C-7.016,-14.781,-7.382,-14.278,-7.629,-13.705C-7.88,-13.123,-7.946,-12.496,-7.827,-11.822C-7.598,-10.469,-6.637,-9.486,-4.953,-8.869C-3.269,-8.247,-1.215,-7.745,1.205,-7.361C3.625,-6.973,6.239,-6.559,9.047,-6.105C11.851,-5.651,14.517,-4.941,17.034,-3.985C19.551,-3.029,21.751,-1.667,23.633,0.092C25.52,1.855,26.723,4.271,27.252,7.335C27.781,10.399,27.587,13.083,26.67,15.379C25.753,17.676,24.413,19.659,22.636,21.33C20.868,22.996,18.806,24.328,16.465,25.324C14.12,26.311,11.779,27.016,9.443,27.417C7.464,27.756,5.608,27.859,3.88,27.735C2.144,27.603,0.539,27.316,-0.924,26.875C-2.392,26.434,-3.733,25.874,-4.945,25.2C-6.157,24.526,-7.206,23.812,-8.083,23.045L-7.907,29.199L-21.545,31.548Z" /></g><g id="Group 8" transform="matrix(1,0,0,1,1171.119,1186.661)"><path fill="#1f140f" fill-opacity="1" d="M24.403,-30.728L27.894,-10.465L16.442,-8.494L14.723,-18.469L8.177,-17.341L14.004,16.486L20.471,15.371L22.256,25.738L-6.74,30.728L-8.525,20.365L-2.133,19.268L-7.961,-14.56L-14.661,-13.405L-12.942,-3.434L-24.402,-1.459L-27.894,-21.723L24.403,-30.728Z" /></g><g id="Group 7" transform="matrix(1,0,0,1,1229.849,1180.049)"><path fill="#1f140f" fill-opacity="1" d="M-9.043,-18.037L-6.759,-4.792L-3.25,-5.396C-0.967,-5.788,0.761,-6.63,1.929,-7.93C3.097,-9.23,3.498,-10.918,3.141,-12.994C2.74,-15.33,1.828,-16.966,0.413,-17.901C-1.011,-18.831,-2.858,-19.1,-5.146,-18.708L-9.043,-18.037ZM-31.206,-24.654L-5.878,-29.018C-1.36,-29.794,2.379,-30.014,5.332,-29.661C8.272,-29.317,10.67,-28.551,12.508,-27.365C14.337,-26.184,15.699,-24.667,16.576,-22.811C17.462,-20.96,18.093,-18.914,18.476,-16.675C18.736,-15.167,18.692,-13.718,18.344,-12.325C18,-10.923,17.4,-9.653,16.55,-8.525C15.708,-7.388,14.65,-6.378,13.385,-5.492C12.12,-4.602,10.701,-3.914,9.123,-3.434C10.511,-3.456,11.869,-3.249,13.2,-2.808C14.536,-2.367,15.753,-1.736,16.859,-0.912C17.965,-0.083,18.908,0.899,19.697,2.05C20.486,3.2,20.998,4.474,21.236,5.876C21.522,7.542,21.88,8.821,22.303,9.707C22.722,10.597,23.289,10.981,24.021,10.853C25.22,10.65,25.675,9.715,25.388,8.053L24.947,5.479L30.167,4.58L30.903,8.869C31.181,10.478,31.269,12.064,31.163,13.638C31.057,15.207,30.66,16.64,29.977,17.936C29.289,19.227,28.28,20.356,26.944,21.308C25.613,22.26,23.854,22.921,21.668,23.296C16.524,24.182,12.5,23.57,9.595,21.445C6.694,19.325,4.847,15.979,4.058,11.408C3.754,9.645,3.423,8.199,3.07,7.079C2.717,5.964,2.211,5.131,1.554,4.571C0.897,4.015,0.024,3.698,-1.06,3.619C-2.14,3.54,-3.541,3.646,-5.256,3.941L-3.175,16.023L1.581,15.203L3.352,25.487L-21.821,29.825L-23.594,19.541L-19.234,18.791L-25.088,-15.194L-29.447,-14.445L-31.206,-24.654Z" /></g><g id="Group 6" transform="matrix(1,0,0,1,1283.726,1166.533)"><path fill="#1f140f" fill-opacity="1" d="M-28.418,-20.898L-3.632,-25.165L-1.9,-15.11L-6.109,-14.387L-3.209,2.452C-2.676,5.564,-2.067,8.081,-1.393,9.998C-0.714,11.915,0.067,13.37,0.926,14.375C1.799,15.38,2.747,16.002,3.778,16.253C4.818,16.5,5.955,16.518,7.198,16.306C8.397,16.099,9.442,15.746,10.35,15.239C11.254,14.741,11.959,13.89,12.479,12.709C12.999,11.519,13.268,9.897,13.29,7.834C13.304,5.771,13.026,3.051,12.444,-0.325L9.596,-16.851L5.387,-16.128L3.615,-26.416L26.686,-30.388L28.418,-20.334L24.209,-19.61L27.47,-0.665C29.062,8.583,28.334,15.689,25.288,20.657C22.229,25.62,17.046,28.732,9.72,29.997C1.777,31.095,-4.61,29.882,-9.446,26.356C-14.282,22.825,-17.464,16.623,-18.994,7.737L-22.309,-11.517L-26.673,-10.763L-28.418,-20.898Z" /></g><g id="Group 5" transform="matrix(1,0,0,1,1344.287,1157.228)"><path fill="#1f140f" fill-opacity="1" d="M27.295,14.446C26.197,16.134,24.927,17.783,23.49,19.396C22.062,21.009,20.44,22.49,18.642,23.843C16.843,25.196,14.847,26.365,12.669,27.361C10.483,28.349,8.12,29.062,5.572,29.503C1.419,30.217,-2.459,30.23,-6.056,29.538C-9.658,28.851,-12.853,27.502,-15.657,25.496C-18.469,23.491,-20.828,20.876,-22.754,17.65C-24.667,14.423,-26.007,10.628,-26.761,6.264C-27.528,1.794,-27.471,-2.354,-26.576,-6.171C-25.681,-9.984,-24.274,-13.334,-22.366,-16.203C-20.453,-19.073,-18.214,-21.396,-15.661,-23.177C-13.104,-24.958,-10.553,-26.059,-8.005,-26.5C-6.083,-26.83,-4.364,-26.888,-2.856,-26.668C-1.348,-26.443,-0.048,-26.121,1.041,-25.689C2.134,-25.266,3.001,-24.798,3.645,-24.296C4.297,-23.789,4.721,-23.45,4.915,-23.269L5.951,-27.941L18.188,-30.048L22,-7.916L8.049,-5.514C7.78,-6.748,7.361,-7.934,6.797,-9.067C6.224,-10.195,5.537,-11.165,4.734,-11.963C3.923,-12.761,2.971,-13.343,1.86,-13.713C0.754,-14.088,-0.502,-14.153,-1.904,-13.911C-3.306,-13.673,-4.513,-13.047,-5.514,-12.046C-6.519,-11.037,-7.304,-9.768,-7.864,-8.229C-8.433,-6.686,-8.772,-4.941,-8.891,-2.997C-9.015,-1.044,-8.887,0.993,-8.521,3.122C-8.191,5.044,-7.63,6.842,-6.823,8.526C-6.029,10.21,-5.038,11.638,-3.844,12.828C-2.645,14.009,-1.278,14.886,0.265,15.45C1.808,16.01,3.508,16.139,5.382,15.817C6.995,15.539,8.464,14.909,9.795,13.93C11.122,12.951,12.259,11.916,13.189,10.823C14.123,9.721,14.868,8.711,15.437,7.785C15.997,6.855,16.336,6.278,16.46,6.04L27.295,14.446Z" /></g><g id="Group 4" transform="matrix(1,0,0,1,1394.109,1148.256)"><path fill="#1f140f" fill-opacity="1" d="M24.405,-30.73L27.896,-10.467L16.44,-8.492L14.72,-18.467L8.174,-17.339L14.002,16.488L20.469,15.373L22.254,25.736L-6.742,30.73L-8.527,20.367L-2.131,19.265L-7.959,-14.562L-14.663,-13.407L-12.944,-3.431L-24.405,-1.457L-27.896,-21.72L24.405,-30.73Z" /></g><g id="Group 3" transform="matrix(1,0,0,1,1439.26,1142.001)"><path fill="#1f140f" fill-opacity="1" d="M-17.63,-25.009L8.245,-29.465L10.017,-19.177L5.186,-18.348L11.013,15.479L15.844,14.65L17.63,25.013L-8.245,29.465L-10.03,19.107L-5.12,18.26L-10.947,-15.567L-15.858,-14.721L-17.63,-25.009Z" /></g><g id="Group 2" transform="matrix(1,0,0,1,1483.033,1134.401)"><path fill="#1f140f" fill-opacity="1" d="M3.006,16.44C4.254,16.224,5.289,15.642,6.122,14.699C6.946,13.756,7.594,12.517,8.053,10.992C8.511,9.467,8.754,7.69,8.776,5.649C8.798,3.617,8.604,1.374,8.181,-1.068C7.771,-3.457,7.215,-5.644,6.528,-7.641C5.836,-9.633,5.007,-11.338,4.046,-12.749C3.081,-14.164,1.975,-15.218,0.732,-15.91C-0.516,-16.611,-1.887,-16.827,-3.395,-16.567C-4.589,-16.36,-5.602,-15.774,-6.427,-14.804C-7.242,-13.83,-7.881,-12.556,-8.331,-10.982C-8.781,-9.408,-9.028,-7.57,-9.072,-5.481C-9.112,-3.383,-8.926,-1.143,-8.512,1.246C-8.076,3.794,-7.459,6.055,-6.665,8.03C-5.871,10.005,-4.972,11.662,-3.963,12.984C-2.962,14.307,-1.86,15.272,-0.657,15.867C0.537,16.462,1.758,16.651,3.006,16.44ZM5.113,28.677C1.066,29.373,-2.781,29.417,-6.409,28.813C-10.05,28.209,-13.308,26.927,-16.191,24.961C-19.065,22.995,-21.507,20.323,-23.499,16.951C-25.5,13.579,-26.924,9.449,-27.766,4.561C-28.493,0.356,-28.489,-3.603,-27.762,-7.314C-27.039,-11.026,-25.686,-14.35,-23.707,-17.281C-21.719,-20.221,-19.17,-22.663,-16.058,-24.62C-12.942,-26.573,-9.358,-27.9,-5.307,-28.596C-0.529,-29.42,3.734,-29.447,7.485,-28.676C11.227,-27.9,14.471,-26.455,17.213,-24.33C19.963,-22.209,22.203,-19.45,23.935,-16.06C25.667,-12.666,26.915,-8.787,27.669,-4.423C28.431,-0.002,28.511,4.063,27.92,7.774C27.334,11.486,26.077,14.761,24.155,17.613C22.242,20.456,19.695,22.823,16.512,24.701C13.329,26.588,9.53,27.915,5.113,28.677Z" /></g><g id="Group 1" transform="matrix(1,0,0,1,1541.089,1124.028)"><path fill="#1f140f" fill-opacity="1" d="M29.425,-22.327L24.281,-21.441L31.934,22.983L15.174,25.871L-9.814,-0.401L-6.433,19.236L-0.43,18.205L1.303,28.26L-22.624,32.381L-24.356,22.326L-19.759,21.533L-25.679,-12.836L-30.201,-12.056L-31.934,-22.111L-9.563,-25.963L14.54,-0.661L11.344,-19.21L5.966,-18.285L4.234,-28.339L27.693,-32.381L29.425,-22.327Z" /></g></g></g></g></g><g id="Group 1" transform="matrix(1,0,0,1,0,0)"><g id="Group 1" transform="matrix(1,0,0,1,0,0)"><g id="Group 6" transform="matrix(1,0,0,1,1489.329,996.439)"><path fill="#d7d9dd" fill-opacity="1" d="M198.234,-369.236C194.126,-392.51,171.928,-408.049,148.68,-403.936L-312.229,-322.635L-186.989,404.596L276.864,322.774C300.129,318.666,315.672,296.467,311.573,273.193L198.234,-369.236Z" /></g><g id="Group 5" transform="matrix(1,0,0,1,1582.752,683.052)"><path fill="#d7d9dd" fill-opacity="1" d="M46.82,-8.26C51.387,17.598,34.117,42.251,8.268,46.822C-17.589,51.384,-42.256,34.118,-46.823,8.256C-51.381,-17.597,-34.11,-42.268,-8.244,-46.821C17.613,-51.388,42.271,-34.113,46.82,-8.26Z" /></g><g id="Group 4" transform="matrix(1,0,0,1,1582.759,683.049)"><path fill="#d7d9dd" fill-opacity="1" d="M21.987,-3.876C24.121,8.259,16.019,19.839,3.879,21.982C-8.269,24.124,-19.845,16.018,-21.987,3.874C-24.12,-8.261,-16.027,-19.836,-3.87,-21.983C8.261,-24.121,19.845,-16.015,21.987,-3.876Z" /></g><g id="Group 3" transform="matrix(1,0,0,1,1174.442,343.445)"><path fill="#d7d9dd" fill-opacity="1" d="M21.984,-3.88C24.126,8.259,16.024,19.843,3.876,21.985C-8.264,24.119,-19.839,16.013,-21.982,3.873C-24.133,-8.262,-16.021,-19.842,-3.873,-21.984C8.258,-24.122,19.842,-16.011,21.984,-3.88Z" /></g><g id="Group 2" transform="matrix(1,0,0,1,1356.66,502.256)"><g id="Group 1"><path fill="#d7d9dd" fill-opacity="1" d="M226.629,153.203L-177.822,-164.424C-180.758,-166.73,-184.981,-166.367,-187.502,-163.608L-229.351,-117.536L-226.283,-99.701L-181.402,-149.102L217.813,164.421C220.916,166.854,225.394,166.304,227.845,163.218C230.252,160.115,229.724,155.632,226.629,153.203Z" /></g></g><g id="Group 1" transform="matrix(1,0,0,1,0,0)"><g id="Group 6" transform="matrix(1,0,0,1,1543.55,1288.214)"><path fill="#d7d9dd" fill-opacity="1" d="M-247.936,73.752L257.889,-15.959L247.645,-73.752L-257.889,15.915L-247.936,73.752Z" /></g><g id="Group 5" transform="matrix(1,0,0,1,1348.704,1322.641)"><path fill="#d7d9dd" fill-opacity="1" d="M-16.689,-26.732L-54.262,32.511L-53.09,39.326L11.672,27.843L54.262,-39.326L-16.689,-26.732Z" /></g><g id="Group 4" transform="matrix(1,0,0,1,1465.591,1302.022)"><path fill="#d7d9dd" fill-opacity="1" d="M14.18,27.294L-56.771,39.879L-14.181,-27.295L56.771,-39.879L14.18,27.294Z" /></g><g id="Group 3" transform="matrix(1,0,0,1,1584.994,1280.844)"><path fill="#d7d9dd" fill-opacity="1" d="M14.18,27.292L-56.762,39.877L-14.189,-27.292L56.762,-39.877L14.18,27.292Z" /></g><g id="Group 2" transform="matrix(1,0,0,1,1704.394,1259.67)"><path fill="#d7d9dd" fill-opacity="1" d="M14.194,27.294L-56.766,39.879L-14.194,-27.29L56.766,-39.879L14.194,27.294Z" /></g><g id="Group 1" transform="matrix(1,0,0,1,1784.006,1256.779)"><path fill="#d7d9dd" fill-opacity="1" d="M10.39,-21.586L-16.975,21.586L16.975,15.564L10.39,-21.586Z" /></g></g></g></g></g></g></g></g><g transform="matrix(1,0,0,1,88,-8)" id="Layer 6"><g id="Group 42" transform="matrix(1,0,0,1,704.516,1817.612)" opacity="0.07"><path fill="#727276" fill-opacity="1" d="M215.758,0C215.758,25.703,119.161,46.54,-0.005,46.54C-119.162,46.54,-215.758,25.703,-215.758,0C-215.758,-25.707,-119.162,-46.54,-0.005,-46.54C119.161,-46.54,215.758,-25.707,215.758,0Z" /></g><g id="Group 41" transform="matrix(1,0,0,1,704.516,1817.612)" opacity="0.07"><path fill="#727276" fill-opacity="1" d="M198.681,0C198.681,23.671,109.728,42.859,-0.005,42.859C-109.729,42.859,-198.681,23.671,-198.681,0C-198.681,-23.667,-109.729,-42.859,-0.005,-42.859C109.728,-42.859,198.681,-23.667,198.681,0Z" /></g><g id="Group 40" transform="matrix(1,0,0,1,704.516,1817.612)" opacity="0.07"><path fill="#727276" fill-opacity="1" d="M298.134,0C298.134,35.515,164.651,64.313,-0.005,64.313C-164.661,64.313,-298.134,35.515,-298.134,0C-298.134,-35.519,-164.661,-64.313,-0.005,-64.313C164.651,-64.313,298.134,-35.519,298.134,0Z" /></g><g id="Group 39" transform="matrix(1,0,0,1,704.511,1817.614)" opacity="0.07"><path fill="#727276" fill-opacity="1" d="M274.539,-0.002C274.539,32.71,151.626,59.219,0,59.219C-151.617,59.219,-274.539,32.71,-274.539,-0.002C-274.539,-32.709,-151.617,-59.219,0,-59.219C151.626,-59.219,274.539,-32.709,274.539,-0.002Z" /></g><g id="Group 38" transform="matrix(1,0,0,1,704.516,1817.612)" opacity="0.07"><path fill="#727276" fill-opacity="1" d="M254.575,0C254.575,30.331,140.601,54.915,-0.005,54.915C-140.602,54.915,-254.575,30.331,-254.575,0C-254.575,-30.327,-140.602,-54.915,-0.005,-54.915C140.601,-54.915,254.575,-30.327,254.575,0Z" /></g><g id="Group 37" transform="matrix(1,0,0,1,704.511,1817.609)" opacity="0.07"><path fill="#727276" fill-opacity="1" d="M232.795,0.002C232.795,27.733,128.572,50.218,0,50.218C-128.563,50.218,-232.795,27.733,-232.795,0.002C-232.795,-27.733,-128.563,-50.218,0,-50.218C128.572,-50.218,232.795,-27.733,232.795,0.002Z" /></g><g id="Group 36" transform="matrix(1,0,0,1,704.516,1817.609)" opacity="0.07"><path fill="#727276" fill-opacity="1" d="M96.363,0.002C96.363,11.485,53.217,20.786,-0.005,20.786C-53.227,20.786,-96.363,11.485,-96.363,0.002C-96.363,-11.477,-53.227,-20.786,-0.005,-20.786C53.217,-20.786,96.363,-11.477,96.363,0.002Z" /></g><g id="Group 35" transform="matrix(1,0,0,1,704.516,1817.612)" opacity="0.07"><path fill="#727276" fill-opacity="1" d="M88.737,0C88.737,10.575,49.003,19.144,-0.005,19.144C-49.013,19.144,-88.737,10.575,-88.737,0C-88.737,-10.57,-49.013,-19.144,-0.005,-19.144C49.003,-19.144,88.737,-10.57,88.737,0Z" /></g><g id="Group 34" transform="matrix(1,0,0,1,704.516,1817.612)" opacity="0.07"><path fill="#727276" fill-opacity="1" d="M82.284,0C82.284,9.799,45.442,17.751,-0.005,17.751C-45.451,17.751,-82.284,9.799,-82.284,0C-82.284,-9.803,-45.451,-17.751,-0.005,-17.751C45.442,-17.751,82.284,-9.803,82.284,0Z" /></g><g id="Group 33" transform="matrix(1,0,0,1,704.511,1817.612)" opacity="0.07"><path fill="#727276" fill-opacity="1" d="M75.244,0C75.244,8.962,41.558,16.23,0,16.23C-41.55,16.23,-75.244,8.962,-75.244,0C-75.244,-8.966,-41.55,-16.23,0,-16.23C41.558,-16.23,75.244,-8.966,75.244,0Z" /></g><g id="Group 32" transform="matrix(1,0,0,1,704.516,1817.609)" opacity="0.07"><path fill="#727276" fill-opacity="1" d="M132.156,0.002C132.156,15.747,72.982,28.509,-0.005,28.509C-72.984,28.509,-132.156,15.747,-132.156,0.002C-132.156,-15.743,-72.984,-28.509,-0.005,-28.509C72.982,-28.509,132.156,-15.743,132.156,0.002Z" /></g><g id="Group 31" transform="matrix(1,0,0,1,704.512,1817.609)" opacity="0.07"><path fill="#727276" fill-opacity="1" d="M121.696,0.002C121.696,14.5,67.213,26.252,0,26.252C-67.204,26.252,-121.696,14.5,-121.696,0.002C-121.696,-14.496,-67.204,-26.252,0,-26.252C67.213,-26.252,121.696,-14.496,121.696,0.002Z" /></g><g id="Group 30" transform="matrix(1,0,0,1,704.511,1817.612)" opacity="0.07"><path fill="#727276" fill-opacity="1" d="M112.845,0C112.845,13.44,62.329,24.341,0,24.341C-62.32,24.341,-112.845,13.44,-112.845,0C-112.845,-13.444,-62.32,-24.341,0,-24.341C62.329,-24.341,112.845,-13.444,112.845,0Z" /></g><g id="Group 29" transform="matrix(1,0,0,1,704.511,1817.609)" opacity="0.07"><path fill="#727276" fill-opacity="1" d="M103.191,0.002C103.191,12.292,56.996,22.258,0,22.258C-56.986,22.258,-103.191,12.292,-103.191,0.002C-103.191,-12.292,-56.986,-22.258,0,-22.258C56.996,-22.258,103.191,-12.292,103.191,0.002Z" /></g><g id="Group 28" transform="matrix(1,0,0,1,704.511,1817.614)" opacity="0.07"><path fill="#727276" fill-opacity="1" d="M182.614,-0.002C182.614,21.751,100.855,39.392,0,39.392C-100.855,39.392,-182.614,21.751,-182.614,-0.002C-182.614,-21.755,-100.855,-39.392,0,-39.392C100.855,-39.392,182.614,-21.755,182.614,-0.002Z" /></g><g id="Group 27" transform="matrix(1,0,0,1,704.516,1817.612)" opacity="0.07"><path fill="#727276" fill-opacity="1" d="M168.16,0C168.16,20.034,92.871,36.273,-0.005,36.273C-92.872,36.273,-168.16,20.034,-168.16,0C-168.16,-20.034,-92.872,-36.273,-0.005,-36.273C92.871,-36.273,168.16,-20.034,168.16,0Z" /></g><g id="Group 26" transform="matrix(1,0,0,1,704.516,1817.609)" opacity="0.07"><path fill="#727276" fill-opacity="1" d="M155.924,0.002C155.924,18.573,86.11,33.635,-0.004,33.635C-86.118,33.635,-155.924,18.573,-155.924,0.002C-155.924,-18.573,-86.118,-33.635,-0.004,-33.635C86.11,-33.635,155.924,-18.573,155.924,0.002Z" /></g><g id="Group 25" transform="matrix(1,0,0,1,704.512,1817.614)" opacity="0.07"><path fill="#727276" fill-opacity="1" d="M142.59,-0.002C142.59,16.987,78.753,30.757,0,30.757C-78.744,30.757,-142.59,16.987,-142.59,-0.002C-142.59,-16.986,-78.744,-30.757,0,-30.757C78.753,-30.757,142.59,-16.986,142.59,-0.002Z" /></g><g id="Group 24" transform="matrix(1,0,0,1,704.511,1817.609)" opacity="0.07"><path fill="#727276" fill-opacity="1" d="M66.446,0.002C66.446,7.919,36.701,14.333,0,14.333C-36.692,14.333,-66.446,7.919,-66.446,0.002C-66.446,-7.91,-36.692,-14.333,0,-14.333C36.701,-14.333,66.446,-7.91,66.446,0.002Z" /></g><g id="Group 23" transform="matrix(1,0,0,1,704.511,1817.609)" opacity="0.07"><path fill="#727276" fill-opacity="1" d="M60.574,0.002C60.574,7.218,33.457,13.067,0,13.067C-33.457,13.067,-60.574,7.218,-60.574,0.002C-60.574,-7.214,-33.457,-13.067,0,-13.067C33.457,-13.067,60.574,-7.214,60.574,0.002Z" /></g><g id="Group 22" transform="matrix(1,0,0,1,704.516,1817.609)" opacity="0.07"><path fill="#727276" fill-opacity="1" d="M56.471,0.002C56.471,6.728,31.187,12.182,-0.004,12.182C-31.186,12.182,-56.471,6.728,-56.471,0.002C-56.471,-6.729,-31.186,-12.182,-0.004,-12.182C31.187,-12.182,56.471,-6.729,56.471,0.002Z" /></g><g id="Group 21" transform="matrix(1,0,0,1,704.511,1817.609)" opacity="0.07"><path fill="#727276" fill-opacity="1" d="M52.006,0.002C52.006,6.195,28.723,11.216,0,11.216C-28.714,11.216,-52.006,6.195,-52.006,0.002C-52.006,-6.195,-28.714,-11.216,0,-11.216C28.723,-11.216,52.006,-6.195,52.006,0.002Z" /></g><g id="Group 20" transform="matrix(1,0,0,1,704.512,1817.609)" opacity="0.07"><path fill="#727276" fill-opacity="1" d="M48.215,0.002C48.215,5.746,26.633,10.401,0,10.401C-26.624,10.401,-48.215,5.746,-48.215,0.002C-48.215,-5.742,-26.624,-10.401,0,-10.401C26.633,-10.401,48.215,-5.742,48.215,0.002Z" /></g><g id="Group 19" transform="matrix(1,0,0,1,704.516,1817.612)" opacity="0.07"><path fill="#727276" fill-opacity="1" d="M44.093,0C44.093,5.254,24.346,9.512,-0.004,9.512C-24.354,9.512,-44.093,5.254,-44.093,0C-44.093,-5.254,-24.354,-9.512,-0.004,-9.512C24.346,-9.512,44.093,-5.254,44.093,0Z" /></g><g id="Group 18" transform="matrix(1,0,0,1,704.516,1817.612)" opacity="0.07"><path fill="#727276" fill-opacity="1" d="M38.936,0C38.936,4.637,21.497,8.397,-0.005,8.397C-21.507,8.397,-38.936,4.637,-38.936,0C-38.936,-4.642,-21.507,-8.397,-0.005,-8.397C21.497,-8.397,38.936,-4.642,38.936,0Z" /></g><g id="Group 17" transform="matrix(1,0,0,1,704.516,1817.612)" opacity="0.07"><path fill="#727276" fill-opacity="1" d="M35.498,0C35.498,4.227,19.603,7.657,-0.004,7.657C-19.611,7.657,-35.498,4.227,-35.498,0C-35.498,-4.232,-19.611,-7.657,-0.004,-7.657C19.603,-7.657,35.498,-4.232,35.498,0Z" /></g><g id="Group 16" transform="matrix(1,0,0,1,704.516,1817.612)" opacity="0.07"><path fill="#727276" fill-opacity="1" d="M35.498,0C35.498,4.227,19.603,7.657,-0.004,7.657C-19.611,7.657,-35.498,4.227,-35.498,0C-35.498,-4.232,-19.611,-7.657,-0.004,-7.657C19.603,-7.657,35.498,-4.232,35.498,0Z" /></g><g id="Group 15" transform="matrix(1,0,0,1,704.511,1817.609)" opacity="0.07"><path fill="#727276" fill-opacity="1" d="M32.69,0.002C32.69,3.894,18.055,7.051,0,7.051C-18.055,7.051,-32.69,3.894,-32.69,0.002C-32.69,-3.89,-18.055,-7.051,0,-7.051C18.055,-7.051,32.69,-3.89,32.69,0.002Z" /></g><g id="Group 14" transform="matrix(1,0,0,1,704.512,1817.612)" opacity="0.07"><path fill="#727276" fill-opacity="1" d="M30.309,0C30.309,3.61,16.742,6.537,0,6.537C-16.742,6.537,-30.309,3.61,-30.309,0C-30.309,-3.61,-16.742,-6.537,0,-6.537C16.742,-6.537,30.309,-3.61,30.309,0Z" /></g><g id="Group 13" transform="matrix(1,0,0,1,704.516,1817.614)" opacity="0.07"><path fill="#727276" fill-opacity="1" d="M27.722,-0.002C27.722,3.3,15.308,5.979,-0.005,5.979C-15.309,5.979,-27.722,3.3,-27.722,-0.002C-27.722,-3.303,-15.309,-5.979,-0.005,-5.979C15.308,-5.979,27.722,-3.303,27.722,-0.002Z" /></g><g id="Group 12" transform="matrix(1,0,0,1,704.511,1817.612)" opacity="0.07"><path fill="#727276" fill-opacity="1" d="M24.473,0C24.473,2.914,13.524,5.281,0,5.281C-13.515,5.281,-24.473,2.914,-24.473,0C-24.473,-2.918,-13.515,-5.281,0,-5.281C13.524,-5.281,24.473,-2.918,24.473,0Z" /></g><g id="Group 11" transform="matrix(1,0,0,1,704.512,1817.609)" opacity="0.07"><path fill="#727276" fill-opacity="1" d="M22.313,0.002C22.313,2.66,12.325,4.816,0,4.816C-12.325,4.816,-22.313,2.66,-22.313,0.002C-22.313,-2.656,-12.325,-4.816,0,-4.816C12.325,-4.816,22.313,-2.656,22.313,0.002Z" /></g><g id="Group 10" transform="matrix(1,0,0,1,704.516,1817.609)" opacity="0.07"><path fill="#727276" fill-opacity="1" d="M20.801,0.002C20.801,2.479,11.491,4.485,-0.005,4.485C-11.492,4.485,-20.801,2.479,-20.801,0.002C-20.801,-2.475,-11.492,-4.485,-0.005,-4.485C11.491,-4.485,20.801,-2.475,20.801,0.002Z" /></g><g id="Group 9" transform="matrix(1,0,0,1,704.516,1817.612)" opacity="0.07"><path fill="#727276" fill-opacity="1" d="M19.153,0C19.153,2.279,10.574,4.13,-0.005,4.13C-10.575,4.13,-19.153,2.279,-19.153,0C-19.153,-2.284,-10.575,-4.13,-0.005,-4.13C10.574,-4.13,19.153,-2.284,19.153,0Z" /></g><g id="Group 8" transform="matrix(1,0,0,1,704.512,1817.612)" opacity="0.07"><path fill="#727276" fill-opacity="1" d="M17.764,0C17.764,2.116,9.812,3.83,0,3.83C-9.803,3.83,-17.764,2.116,-17.764,0C-17.764,-2.116,-9.803,-3.83,0,-3.83C9.812,-3.83,17.764,-2.116,17.764,0Z" /></g><g id="Group 7" transform="matrix(1,0,0,1,704.512,1817.612)" opacity="0.07"><path fill="#727276" fill-opacity="1" d="M16.239,0C16.239,1.935,8.966,3.505,0,3.505C-8.966,3.505,-16.239,1.935,-16.239,0C-16.239,-1.935,-8.966,-3.505,0,-3.505C8.966,-3.505,16.239,-1.935,16.239,0Z" /></g><g id="Group 6" transform="matrix(1,0,0,1,704.511,1817.614)" opacity="0.07"><path fill="#727276" fill-opacity="1" d="M14.343,-0.002C14.343,1.708,7.926,3.092,0,3.092C-7.917,3.092,-14.343,1.708,-14.343,-0.002C-14.343,-1.708,-7.917,-3.092,0,-3.092C7.926,-3.092,14.343,-1.708,14.343,-0.002Z" /></g><g id="Group 5" transform="matrix(1,0,0,1,704.511,1817.609)" opacity="0.07"><path fill="#727276" fill-opacity="1" d="M13.074,0.002C13.074,1.558,7.22,2.819,0,2.819C-7.22,2.819,-13.074,1.558,-13.074,0.002C-13.074,-1.558,-7.22,-2.819,0,-2.819C7.22,-2.819,13.074,-1.558,13.074,0.002Z" /></g><g id="Group 4" transform="matrix(1,0,0,1,704.511,1817.612)" opacity="0.07"><path fill="#727276" fill-opacity="1" d="M11.223,0C11.223,1.336,6.198,2.42,0,2.42C-6.197,2.42,-11.223,1.336,-11.223,0C-11.223,-1.336,-6.197,-2.42,0,-2.42C6.198,-2.42,11.223,-1.336,11.223,0Z" /></g><g id="Group 3" transform="matrix(1,0,0,1,704.516,1817.609)" opacity="0.07"><path fill="#727276" fill-opacity="1" d="M9.244,0.002C9.244,1.104,5.101,1.99,-0.004,1.99C-5.1,1.99,-9.244,1.104,-9.244,0.002C-9.244,-1.1,-5.1,-1.99,-0.004,-1.99C5.101,-1.99,9.244,-1.1,9.244,0.002Z" /></g><g id="Group 2" transform="matrix(1,0,0,1,704.516,1817.609)" opacity="0.07"><path fill="#727276" fill-opacity="1" d="M6.378,0.002C6.378,0.765,3.522,1.378,-0.005,1.378C-3.523,1.378,-6.378,0.765,-6.378,0.002C-6.378,-0.76,-3.523,-1.378,-0.005,-1.378C3.522,-1.378,6.378,-0.76,6.378,0.002Z" /></g><g id="Group 1" transform="matrix(1,0,0,1,704.516,1817.614)" opacity="0.07"><path fill="#727276" fill-opacity="1" d="M4.324,-0.002C4.324,0.514,2.384,0.932,-0.005,0.932C-2.394,0.932,-4.324,0.514,-4.324,-0.002C-4.324,-0.517,-2.394,-0.932,-0.005,-0.932C2.384,-0.932,4.324,-0.517,4.324,-0.002Z" /></g></g><g transform="matrix(1,0,0,1,88,-8)" id="Layer 5"><g id="Group 42" transform="matrix(1,0,0,1,1630.577,1618.778)" opacity="0.07"><path fill="#727276" fill-opacity="1" d="M249.272,0.002C249.272,36.624,137.671,66.321,0.009,66.321C-137.661,66.321,-249.272,36.624,-249.272,0.002C-249.272,-36.637,-137.661,-66.321,0.009,-66.321C137.671,-66.321,249.272,-36.637,249.272,0.002Z" /></g><g id="Group 41" transform="matrix(1,0,0,1,1630.582,1618.774)" opacity="0.07"><path fill="#727276" fill-opacity="1" d="M229.537,0.007C229.537,33.737,126.769,61.075,0.004,61.075C-126.77,61.075,-229.537,33.737,-229.537,0.007C-229.537,-33.727,-126.77,-61.075,0.004,-61.075C126.769,-61.075,229.537,-33.727,229.537,0.007Z" /></g><g id="Group 40" transform="matrix(1,0,0,1,1630.582,1618.778)" opacity="0.07"><path fill="#727276" fill-opacity="1" d="M344.436,0.002C344.436,50.615,190.236,91.649,0.004,91.649C-190.227,91.649,-344.436,50.615,-344.436,0.002C-344.436,-50.619,-190.227,-91.649,0.004,-91.649C190.236,-91.649,344.436,-50.619,344.436,0.002Z" /></g><g id="Group 39" transform="matrix(1,0,0,1,1630.577,1618.78)" opacity="0.07"><path fill="#727276" fill-opacity="1" d="M317.173,0C317.173,46.61,175.174,84.391,0.009,84.391C-175.165,84.391,-317.173,46.61,-317.173,0C-317.173,-46.614,-175.165,-84.391,0.009,-84.391C175.174,-84.391,317.173,-46.614,317.173,0Z" /></g><g id="Group 38" transform="matrix(1,0,0,1,1630.582,1618.776)" opacity="0.07"><path fill="#727276" fill-opacity="1" d="M294.114,0.005C294.114,43.225,162.439,78.255,0.004,78.255C-162.43,78.255,-294.114,43.225,-294.114,0.005C-294.114,-43.215,-162.43,-78.255,0.004,-78.255C162.439,-78.255,294.114,-43.215,294.114,0.005Z" /></g><g id="Group 37" transform="matrix(1,0,0,1,1630.577,1618.776)" opacity="0.07"><path fill="#727276" fill-opacity="1" d="M268.949,0.005C268.949,39.523,148.541,71.559,0.009,71.559C-148.531,71.559,-268.949,39.523,-268.949,0.005C-268.949,-39.521,-148.531,-71.559,0.009,-71.559C148.541,-71.559,268.949,-39.521,268.949,0.005Z" /></g><g id="Group 36" transform="matrix(1,0,0,1,1630.582,1618.774)" opacity="0.07"><path fill="#727276" fill-opacity="1" d="M111.333,0.007C111.333,16.365,61.487,29.624,0.004,29.624C-61.487,29.624,-111.333,16.365,-111.333,0.007C-111.333,-16.355,-61.487,-29.624,0.004,-29.624C61.487,-29.624,111.333,-16.355,111.333,0.007Z" /></g><g id="Group 35" transform="matrix(1,0,0,1,1630.586,1618.778)" opacity="0.07"><path fill="#727276" fill-opacity="1" d="M102.521,0.002C102.521,15.064,56.616,27.279,0,27.279C-56.625,27.279,-102.521,15.064,-102.521,0.002C-102.521,-15.065,-56.625,-27.279,0,-27.279C56.616,-27.279,102.521,-15.065,102.521,0.002Z" /></g><g id="Group 34" transform="matrix(1,0,0,1,1630.586,1618.776)" opacity="0.07"><path fill="#727276" fill-opacity="1" d="M95.063,0.005C95.063,13.97,52.499,25.297,0,25.297C-52.508,25.297,-95.063,13.97,-95.063,0.005C-95.063,-13.968,-52.508,-25.297,0,-25.297C52.499,-25.297,95.063,-13.968,95.063,0.005Z" /></g><g id="Group 33" transform="matrix(1,0,0,1,1630.582,1618.778)" opacity="0.07"><path fill="#727276" fill-opacity="1" d="M86.93,0.002C86.93,12.767,48.016,23.127,0.004,23.127C-48.008,23.127,-86.93,12.767,-86.93,0.002C-86.93,-12.781,-48.008,-23.127,0.004,-23.127C48.016,-23.127,86.93,-12.781,86.93,0.002Z" /></g><g id="Group 32" transform="matrix(1,0,0,1,1630.582,1618.776)" opacity="0.07"><path fill="#727276" fill-opacity="1" d="M152.679,0.004C152.679,22.441,84.32,40.628,0.004,40.628C-84.321,40.628,-152.679,22.441,-152.679,0.004C-152.679,-22.433,-84.321,-40.628,0.004,-40.628C84.32,-40.628,152.679,-22.433,152.679,0.004Z" /></g><g id="Group 31" transform="matrix(1,0,0,1,1630.582,1618.776)" opacity="0.07"><path fill="#727276" fill-opacity="1" d="M140.593,0.005C140.593,20.665,77.646,37.411,0.004,37.411C-77.647,37.411,-140.593,20.665,-140.593,0.005C-140.593,-20.66,-77.647,-37.411,0.004,-37.411C77.646,-37.411,140.593,-20.66,140.593,0.005Z" /></g><g id="Group 30" transform="matrix(1,0,0,1,1630.577,1618.78)" opacity="0.07"><path fill="#727276" fill-opacity="1" d="M130.371,0C130.371,19.157,72.009,34.687,0.009,34.687C-72,34.687,-130.371,19.157,-130.371,0C-130.371,-19.166,-72,-34.687,0.009,-34.687C72.009,-34.687,130.371,-19.166,130.371,0Z" /></g><g id="Group 29" transform="matrix(1,0,0,1,1630.582,1618.774)" opacity="0.07"><path fill="#727276" fill-opacity="1" d="M119.214,0.007C119.214,17.516,65.842,31.718,0.004,31.718C-65.843,31.718,-119.214,17.516,-119.214,0.007C-119.214,-17.515,-65.843,-31.718,0.004,-31.718C65.842,-31.718,119.214,-17.515,119.214,0.007Z" /></g><g id="Group 28" transform="matrix(1,0,0,1,1630.573,1618.781)" opacity="0.07"><path fill="#727276" fill-opacity="1" d="M210.971,0C210.971,30.997,116.525,56.131,0.013,56.131C-116.517,56.131,-210.971,30.997,-210.971,0C-210.971,-31.006,-116.517,-56.131,0.013,-56.131C116.525,-56.131,210.971,-31.006,210.971,0Z" /></g><g id="Group 27" transform="matrix(1,0,0,1,1630.582,1618.778)" opacity="0.07"><path fill="#727276" fill-opacity="1" d="M194.273,0.002C194.273,28.548,107.295,51.69,0.004,51.69C-107.295,51.69,-194.273,28.548,-194.273,0.002C-194.273,-28.549,-107.295,-51.69,0.004,-51.69C107.295,-51.69,194.273,-28.549,194.273,0.002Z" /></g><g id="Group 26" transform="matrix(1,0,0,1,1630.582,1618.774)" opacity="0.07"><path fill="#727276" fill-opacity="1" d="M180.141,0.007C180.141,26.473,99.492,47.93,0.004,47.93C-99.502,47.93,-180.141,26.473,-180.141,0.007C-180.141,-26.467,-99.502,-47.93,0.004,-47.93C99.492,-47.93,180.141,-26.467,180.141,0.007Z" /></g><g id="Group 25" transform="matrix(1,0,0,1,1630.582,1618.778)" opacity="0.07"><path fill="#727276" fill-opacity="1" d="M164.731,0.002C164.731,24.206,90.976,43.831,0.004,43.831C-90.977,43.831,-164.731,24.206,-164.731,0.002C-164.731,-24.207,-90.977,-43.831,0.004,-43.831C90.976,-43.831,164.731,-24.207,164.731,0.002Z" /></g><g id="Group 24" transform="matrix(1,0,0,1,1630.582,1618.776)" opacity="0.07"><path fill="#727276" fill-opacity="1" d="M76.765,0.005C76.765,11.281,42.4,20.427,0.004,20.427C-42.401,20.427,-76.765,11.281,-76.765,0.005C-76.765,-11.279,-42.401,-20.427,0.004,-20.427C42.4,-20.427,76.765,-11.279,76.765,0.005Z" /></g><g id="Group 23" transform="matrix(1,0,0,1,1630.582,1618.776)" opacity="0.07"><path fill="#727276" fill-opacity="1" d="M69.986,0.004C69.986,10.288,38.653,18.624,0.004,18.624C-38.654,18.624,-69.986,10.288,-69.986,0.004C-69.986,-10.28,-38.654,-18.624,0.004,-18.624C38.653,-18.624,69.986,-10.28,69.986,0.004Z" /></g><g id="Group 22" transform="matrix(1,0,0,1,1630.586,1618.776)" opacity="0.07"><path fill="#727276" fill-opacity="1" d="M65.238,0.005C65.238,9.588,36.022,17.363,0,17.363C-36.039,17.363,-65.238,9.588,-65.238,0.005C-65.238,-9.587,-36.039,-17.363,0,-17.363C36.022,-17.363,65.238,-9.587,65.238,0.005Z" /></g><g id="Group 21" transform="matrix(1,0,0,1,1630.586,1618.772)" opacity="0.07"><path fill="#727276" fill-opacity="1" d="M60.081,0.009C60.081,8.834,33.174,15.984,0,15.984C-33.192,15.984,-60.081,8.834,-60.081,0.009C-60.081,-8.824,-33.192,-15.984,0,-15.984C33.174,-15.984,60.081,-8.824,60.081,0.009Z" /></g><g id="Group 20" transform="matrix(1,0,0,1,1630.577,1618.776)" opacity="0.07"><path fill="#727276" fill-opacity="1" d="M55.708,0.005C55.708,8.186,30.768,14.824,0.009,14.824C-30.767,14.824,-55.708,8.186,-55.708,0.005C-55.708,-8.185,-30.767,-14.824,0.009,-14.824C30.768,-14.824,55.708,-8.185,55.708,0.005Z" /></g><g id="Group 19" transform="matrix(1,0,0,1,1630.582,1618.774)" opacity="0.07"><path fill="#727276" fill-opacity="1" d="M50.943,0.007C50.943,7.492,28.136,13.557,0.004,13.557C-28.128,13.557,-50.943,7.492,-50.943,0.007C-50.943,-7.482,-28.128,-13.557,0.004,-13.557C28.136,-13.557,50.943,-7.482,50.943,0.007Z" /></g><g id="Group 18" transform="matrix(1,0,0,1,1630.577,1618.776)" opacity="0.07"><path fill="#727276" fill-opacity="1" d="M44.979,0.004C44.979,6.607,24.852,11.968,0.009,11.968C-24.843,11.968,-44.979,6.607,-44.979,0.004C-44.979,-6.608,-24.843,-11.968,0.009,-11.968C24.852,-11.968,44.979,-6.608,44.979,0.004Z" /></g><g id="Group 17" transform="matrix(1,0,0,1,1630.586,1618.774)" opacity="0.07"><path fill="#727276" fill-opacity="1" d="M41.012,0.007C41.012,6.028,22.648,10.908,0,10.908C-22.648,10.908,-41.012,6.028,-41.012,0.007C-41.012,-6.023,-22.648,-10.908,0,-10.908C22.648,-10.908,41.012,-6.023,41.012,0.007Z" /></g><g id="Group 16" transform="matrix(1,0,0,1,1630.586,1618.774)" opacity="0.07"><path fill="#727276" fill-opacity="1" d="M41.012,0.007C41.012,6.028,22.648,10.908,0,10.908C-22.648,10.908,-41.012,6.028,-41.012,0.007C-41.012,-6.023,-22.648,-10.908,0,-10.908C22.648,-10.908,41.012,-6.023,41.012,0.007Z" /></g><g id="Group 15" transform="matrix(1,0,0,1,1630.582,1618.776)" opacity="0.07"><path fill="#727276" fill-opacity="1" d="M37.763,0.004C37.763,5.549,20.854,10.05,0.004,10.05C-20.855,10.05,-37.763,5.549,-37.763,0.004C-37.763,-5.541,-20.855,-10.05,0.004,-10.05C20.854,-10.05,37.763,-5.541,37.763,0.004Z" /></g><g id="Group 14" transform="matrix(1,0,0,1,1630.586,1618.776)" opacity="0.07"><path fill="#727276" fill-opacity="1" d="M35.017,0.004C35.017,5.144,19.333,9.318,0,9.318C-19.342,9.318,-35.017,5.144,-35.017,0.004C-35.017,-5.144,-19.342,-9.318,0,-9.318C19.333,-9.318,35.017,-5.144,35.017,0.004Z" /></g><g id="Group 13" transform="matrix(1,0,0,1,1630.582,1618.778)" opacity="0.07"><path fill="#727276" fill-opacity="1" d="M32.024,0.002C32.024,4.71,17.689,8.518,0.004,8.518C-17.69,8.518,-32.024,4.71,-32.024,0.002C-32.024,-4.706,-17.69,-8.518,0.004,-8.518C17.689,-8.518,32.024,-4.706,32.024,0.002Z" /></g><g id="Group 12" transform="matrix(1,0,0,1,1630.582,1618.776)" opacity="0.07"><path fill="#727276" fill-opacity="1" d="M28.277,0.004C28.277,4.152,15.617,7.529,0.004,7.529C-15.618,7.529,-28.277,4.152,-28.277,0.004C-28.277,-4.153,-15.618,-7.529,0.004,-7.529C15.617,-7.529,28.277,-4.153,28.277,0.004Z" /></g><g id="Group 11" transform="matrix(1,0,0,1,1630.577,1618.776)" opacity="0.07"><path fill="#727276" fill-opacity="1" d="M25.778,0.005C25.778,3.787,14.247,6.863,0.009,6.863C-14.237,6.863,-25.778,3.787,-25.778,0.005C-25.778,-3.79,-14.237,-6.863,0.009,-6.863C14.247,-6.863,25.778,-3.79,25.778,0.005Z" /></g><g id="Group 10" transform="matrix(1,0,0,1,1630.582,1618.776)" opacity="0.07"><path fill="#727276" fill-opacity="1" d="M24.028,0.005C24.028,3.532,13.281,6.396,0.004,6.396C-13.273,6.396,-24.028,3.532,-24.028,0.005C-24.028,-3.53,-13.273,-6.396,0.004,-6.396C13.281,-6.396,24.028,-3.53,24.028,0.005Z" /></g><g id="Group 9" transform="matrix(1,0,0,1,1630.586,1618.778)" opacity="0.07"><path fill="#727276" fill-opacity="1" d="M22.128,0.002C22.128,3.251,12.219,5.887,0,5.887C-12.219,5.887,-22.128,3.251,-22.128,0.002C-22.128,-3.256,-12.219,-5.887,0,-5.887C12.219,-5.887,22.128,-3.256,22.128,0.002Z" /></g><g id="Group 8" transform="matrix(1,0,0,1,1630.577,1618.778)" opacity="0.07"><path fill="#727276" fill-opacity="1" d="M20.524,0.002C20.524,3.013,11.338,5.459,0.009,5.459C-11.328,5.459,-20.524,3.013,-20.524,0.002C-20.524,-3.017,-11.328,-5.459,0.009,-5.459C11.338,-5.459,20.524,-3.017,20.524,0.002Z" /></g><g id="Group 7" transform="matrix(1,0,0,1,1630.582,1618.778)" opacity="0.07"><path fill="#727276" fill-opacity="1" d="M18.765,0.002C18.765,2.757,10.363,4.992,0.004,4.992C-10.372,4.992,-18.765,2.757,-18.765,0.002C-18.765,-2.762,-10.372,-4.992,0.004,-4.992C10.363,-4.992,18.765,-2.762,18.765,0.002Z" /></g><g id="Group 6" transform="matrix(1,0,0,1,1630.577,1618.78)" opacity="0.07"><path fill="#727276" fill-opacity="1" d="M16.574,0C16.574,2.433,9.151,4.408,0.009,4.408C-9.142,4.408,-16.574,2.433,-16.574,0C-16.574,-2.433,-9.142,-4.408,0.009,-4.408C9.151,-4.408,16.574,-2.433,16.574,0Z" /></g><g id="Group 5" transform="matrix(1,0,0,1,1630.582,1618.776)" opacity="0.07"><path fill="#727276" fill-opacity="1" d="M15.106,0.004C15.106,2.221,8.344,4.02,0.004,4.02C-8.353,4.02,-15.106,2.221,-15.106,0.004C-15.106,-2.222,-8.353,-4.02,0.004,-4.02C8.344,-4.02,15.106,-2.222,15.106,0.004Z" /></g><g id="Group 4" transform="matrix(1,0,0,1,1630.582,1618.776)" opacity="0.07"><path fill="#727276" fill-opacity="1" d="M12.964,0.004C12.964,1.899,7.154,3.447,0.004,3.447C-7.163,3.447,-12.964,1.899,-12.964,0.004C-12.964,-1.9,-7.163,-3.447,0.004,-3.447C7.154,-3.447,12.964,-1.9,12.964,0.004Z" /></g><g id="Group 3" transform="matrix(1,0,0,1,1630.582,1618.776)" opacity="0.07"><path fill="#727276" fill-opacity="1" d="M10.681,0.005C10.681,1.57,5.893,2.839,0.004,2.839C-5.894,2.839,-10.681,1.57,-10.681,0.005C-10.681,-1.573,-5.894,-2.839,0.004,-2.839C5.893,-2.839,10.681,-1.573,10.681,0.005Z" /></g><g id="Group 2" transform="matrix(1,0,0,1,1630.582,1618.776)" opacity="0.07"><path fill="#727276" fill-opacity="1" d="M7.366,0.004C7.366,1.088,4.068,1.961,0.004,1.961C-4.069,1.961,-7.366,1.088,-7.366,0.004C-7.366,-1.085,-4.069,-1.961,0.004,-1.961C4.068,-1.961,7.366,-1.085,7.366,0.004Z" /></g><g id="Group 1" transform="matrix(1,0,0,1,1630.577,1618.778)" opacity="0.07"><path fill="#727276" fill-opacity="1" d="M4.999,0.002C4.999,0.734,2.76,1.329,0.009,1.329C-2.759,1.329,-4.999,0.734,-4.999,0.002C-4.999,-0.739,-2.759,-1.329,0.009,-1.329C2.76,-1.329,4.999,-0.739,4.999,0.002Z" /></g></g><g transform="matrix(1,0,0,1,88,-8)" id="Layer 4"><g id="Group 42" transform="matrix(1,0,0,1,1797.878,1782.863)" opacity="0.07"><path fill="#727276" fill-opacity="1" d="M235.73,0C235.73,36.626,130.195,66.323,0,66.323C-130.194,66.323,-235.73,36.626,-235.73,0C-235.73,-36.635,-130.194,-66.323,0,-66.323C130.195,-66.323,235.73,-36.635,235.73,0Z" /></g><g id="Group 41" transform="matrix(1,0,0,1,1797.878,1782.857)" opacity="0.07"><path fill="#727276" fill-opacity="1" d="M217.076,0.007C217.076,33.737,119.889,61.075,0,61.075C-119.888,61.075,-217.076,33.737,-217.076,0.007C-217.076,-33.723,-119.888,-61.075,0,-61.075C119.889,-61.075,217.076,-33.723,217.076,0.007Z" /></g><g id="Group 40" transform="matrix(1,0,0,1,1797.882,1782.864)" opacity="0.07"><path fill="#727276" fill-opacity="1" d="M325.728,0C325.728,50.613,179.894,91.646,-0.005,91.646C-179.895,91.646,-325.728,50.613,-325.728,0C-325.728,-50.622,-179.895,-91.646,-0.005,-91.646C179.894,-91.646,325.728,-50.622,325.728,0Z" /></g><g id="Group 39" transform="matrix(1,0,0,1,1797.878,1782.864)" opacity="0.07"><path fill="#727276" fill-opacity="1" d="M299.946,0C299.946,46.61,165.661,84.391,0,84.391C-165.661,84.391,-299.946,46.61,-299.946,0C-299.946,-46.61,-165.661,-84.391,0,-84.391C165.661,-84.391,299.946,-46.61,299.946,0Z" /></g><g id="Group 38" transform="matrix(1,0,0,1,1797.878,1782.859)" opacity="0.07"><path fill="#727276" fill-opacity="1" d="M278.135,0.005C278.135,43.225,153.618,78.255,0,78.255C-153.609,78.255,-278.135,43.225,-278.135,0.005C-278.135,-43.211,-153.609,-78.255,0,-78.255C153.618,-78.255,278.135,-43.211,278.135,0.005Z" /></g><g id="Group 37" transform="matrix(1,0,0,1,1797.878,1782.859)" opacity="0.07"><path fill="#727276" fill-opacity="1" d="M254.341,0.005C254.341,39.522,140.474,71.559,0,71.559C-140.465,71.559,-254.341,39.522,-254.341,0.005C-254.341,-39.522,-140.465,-71.559,0,-71.559C140.474,-71.559,254.341,-39.522,254.341,0.005Z" /></g><g id="Group 36" transform="matrix(1,0,0,1,1797.882,1782.857)" opacity="0.07"><path fill="#727276" fill-opacity="1" d="M105.285,0.007C105.285,16.365,58.145,29.624,-0.005,29.624C-58.155,29.624,-105.285,16.365,-105.285,0.007C-105.285,-16.355,-58.155,-29.624,-0.005,-29.624C58.145,-29.624,105.285,-16.355,105.285,0.007Z" /></g><g id="Group 35" transform="matrix(1,0,0,1,1797.878,1782.863)" opacity="0.07"><path fill="#727276" fill-opacity="1" d="M96.949,0C96.949,15.062,53.54,27.277,0,27.277C-53.539,27.277,-96.949,15.062,-96.949,0C-96.949,-15.067,-53.539,-27.277,0,-27.277C53.54,-27.277,96.949,-15.067,96.949,0Z" /></g><g id="Group 34" transform="matrix(1,0,0,1,1797.882,1782.861)" opacity="0.07"><path fill="#727276" fill-opacity="1" d="M89.901,0.002C89.901,13.966,49.656,25.295,-0.005,25.295C-49.657,25.295,-89.901,13.966,-89.901,0.002C-89.901,-13.967,-49.657,-25.295,-0.005,-25.295C49.656,-25.295,89.901,-13.967,89.901,0.002Z" /></g><g id="Group 33" transform="matrix(1,0,0,1,1797.878,1782.861)" opacity="0.07"><path fill="#727276" fill-opacity="1" d="M82.209,0.002C82.209,12.772,45.402,23.127,0,23.127C-45.402,23.127,-82.209,12.772,-82.209,0.002C-82.209,-12.781,-45.402,-23.127,0,-23.127C45.402,-23.127,82.209,-12.781,82.209,0.002Z" /></g><g id="Group 32" transform="matrix(1,0,0,1,1797.878,1782.861)" opacity="0.07"><path fill="#727276" fill-opacity="1" d="M144.388,0.002C144.388,22.439,79.74,40.626,0,40.626C-79.74,40.626,-144.388,22.439,-144.388,0.002C-144.388,-22.435,-79.74,-40.626,0,-40.626C79.74,-40.626,144.388,-22.435,144.388,0.002Z" /></g><g id="Group 31" transform="matrix(1,0,0,1,1797.883,1782.859)" opacity="0.07"><path fill="#727276" fill-opacity="1" d="M132.958,0.005C132.958,20.665,73.423,37.411,-0.005,37.411C-73.442,37.411,-132.958,20.665,-132.958,0.005C-132.958,-20.66,-73.442,-37.411,-0.005,-37.411C73.423,-37.411,132.958,-20.66,132.958,0.005Z" /></g><g id="Group 30" transform="matrix(1,0,0,1,1797.878,1782.866)" opacity="0.07"><path fill="#727276" fill-opacity="1" d="M123.291,-0.002C123.291,19.155,68.095,34.684,0,34.684C-68.086,34.684,-123.291,19.155,-123.291,-0.002C-123.291,-19.168,-68.086,-34.684,0,-34.684C68.095,-34.684,123.291,-19.168,123.291,-0.002Z" /></g><g id="Group 29" transform="matrix(1,0,0,1,1797.878,1782.857)" opacity="0.07"><path fill="#727276" fill-opacity="1" d="M112.739,0.007C112.739,17.516,62.268,31.718,0,31.718C-62.267,31.718,-112.739,17.516,-112.739,0.007C-112.739,-17.515,-62.267,-31.718,0,-31.718C62.268,-31.718,112.739,-17.515,112.739,0.007Z" /></g><g id="Group 28" transform="matrix(1,0,0,1,1797.869,1782.866)" opacity="0.07"><path fill="#727276" fill-opacity="1" d="M199.514,-0.002C199.514,30.995,110.191,56.134,0.009,56.134C-110.182,56.134,-199.514,30.995,-199.514,-0.002C-199.514,-31.008,-110.182,-56.134,0.009,-56.134C110.191,-56.134,199.514,-31.008,199.514,-0.002Z" /></g><g id="Group 27" transform="matrix(1,0,0,1,1797.878,1782.863)" opacity="0.07"><path fill="#727276" fill-opacity="1" d="M183.725,0C183.725,28.546,101.472,51.688,0,51.688C-101.463,51.688,-183.725,28.546,-183.725,0C-183.725,-28.551,-101.463,-51.688,0,-51.688C101.472,-51.688,183.725,-28.551,183.725,0Z" /></g><g id="Group 26" transform="matrix(1,0,0,1,1797.878,1782.857)" opacity="0.07"><path fill="#727276" fill-opacity="1" d="M170.36,0.007C170.36,26.472,94.084,47.93,0,47.93C-94.093,47.93,-170.36,26.472,-170.36,0.007C-170.36,-26.468,-94.093,-47.93,0,-47.93C94.084,-47.93,170.36,-26.468,170.36,0.007Z" /></g><g id="Group 25" transform="matrix(1,0,0,1,1797.878,1782.863)" opacity="0.07"><path fill="#727276" fill-opacity="1" d="M155.787,0C155.787,24.208,86.035,43.833,0,43.833C-86.035,43.833,-155.787,24.208,-155.787,0C-155.787,-24.209,-86.035,-43.833,0,-43.833C86.035,-43.833,155.787,-24.209,155.787,0Z" /></g><g id="Group 24" transform="matrix(1,0,0,1,1797.882,1782.859)" opacity="0.07"><path fill="#727276" fill-opacity="1" d="M72.595,0.005C72.595,11.285,40.081,20.427,-0.005,20.427C-40.1,20.427,-72.595,11.285,-72.595,0.005C-72.595,-11.275,-40.1,-20.427,-0.005,-20.427C40.081,-20.427,72.595,-11.275,72.595,0.005Z" /></g><g id="Group 23" transform="matrix(1,0,0,1,1797.878,1782.859)" opacity="0.07"><path fill="#727276" fill-opacity="1" d="M66.182,0.005C66.182,10.289,36.551,18.624,0,18.624C-36.551,18.624,-66.182,10.289,-66.182,0.005C-66.182,-10.275,-36.551,-18.624,0,-18.624C36.551,-18.624,66.182,-10.275,66.182,0.005Z" /></g><g id="Group 22" transform="matrix(1,0,0,1,1797.874,1782.861)" opacity="0.07"><path fill="#727276" fill-opacity="1" d="M61.699,0.002C61.699,9.585,34.078,17.361,0.004,17.361C-34.07,17.361,-61.699,9.585,-61.699,0.002C-61.699,-9.59,-34.07,-17.361,0.004,-17.361C34.078,-17.361,61.699,-9.59,61.699,0.002Z" /></g><g id="Group 21" transform="matrix(1,0,0,1,1797.878,1782.857)" opacity="0.07"><path fill="#727276" fill-opacity="1" d="M56.819,0.007C56.819,8.831,31.376,15.981,0,15.981C-31.385,15.981,-56.819,8.831,-56.819,0.007C-56.819,-8.822,-31.385,-15.981,0,-15.981C31.376,-15.981,56.819,-8.822,56.819,0.007Z" /></g><g id="Group 20" transform="matrix(1,0,0,1,1797.874,1782.859)" opacity="0.07"><path fill="#727276" fill-opacity="1" d="M52.68,0.005C52.68,8.186,29.097,14.824,0.004,14.824C-29.089,14.824,-52.68,8.186,-52.68,0.005C-52.68,-8.185,-29.089,-14.824,0.004,-14.824C29.097,-14.824,52.68,-8.185,52.68,0.005Z" /></g><g id="Group 19" transform="matrix(1,0,0,1,1797.883,1782.859)" opacity="0.07"><path fill="#727276" fill-opacity="1" d="M48.175,0.005C48.175,7.49,26.602,13.554,-0.005,13.554C-26.611,13.554,-48.175,7.49,-48.175,0.005C-48.175,-7.484,-26.611,-13.554,-0.005,-13.554C26.602,-13.554,48.175,-7.484,48.175,0.005Z" /></g><g id="Group 18" transform="matrix(1,0,0,1,1797.878,1782.859)" opacity="0.07"><path fill="#727276" fill-opacity="1" d="M42.537,0.005C42.537,6.608,23.495,11.968,0,11.968C-23.494,11.968,-42.537,6.608,-42.537,0.005C-42.537,-6.607,-23.494,-11.968,0,-11.968C23.495,-11.968,42.537,-6.607,42.537,0.005Z" /></g><g id="Group 17" transform="matrix(1,0,0,1,1797.878,1782.859)" opacity="0.07"><path fill="#727276" fill-opacity="1" d="M38.782,0.005C38.782,6.026,21.423,10.91,0,10.91C-21.414,10.91,-38.782,6.026,-38.782,0.005C-38.782,-6.025,-21.414,-10.91,0,-10.91C21.423,-10.91,38.782,-6.025,38.782,0.005Z" /></g><g id="Group 16" transform="matrix(1,0,0,1,1797.878,1782.859)" opacity="0.07"><path fill="#727276" fill-opacity="1" d="M38.782,0.005C38.782,6.026,21.423,10.91,0,10.91C-21.414,10.91,-38.782,6.026,-38.782,0.005C-38.782,-6.025,-21.414,-10.91,0,-10.91C21.423,-10.91,38.782,-6.025,38.782,0.005Z" /></g><g id="Group 15" transform="matrix(1,0,0,1,1797.878,1782.859)" opacity="0.07"><path fill="#727276" fill-opacity="1" d="M35.713,0.005C35.713,5.555,19.722,10.05,0,10.05C-19.721,10.05,-35.713,5.555,-35.713,0.005C-35.713,-5.54,-19.721,-10.05,0,-10.05C19.722,-10.05,35.713,-5.54,35.713,0.005Z" /></g><g id="Group 14" transform="matrix(1,0,0,1,1797.878,1782.861)" opacity="0.07"><path fill="#727276" fill-opacity="1" d="M33.113,0.002C33.113,5.141,18.293,9.316,0,9.316C-18.284,9.316,-33.113,5.141,-33.113,0.002C-33.113,-5.147,-18.284,-9.316,0,-9.316C18.293,-9.316,33.113,-5.147,33.113,0.002Z" /></g><g id="Group 13" transform="matrix(1,0,0,1,1797.878,1782.861)" opacity="0.07"><path fill="#727276" fill-opacity="1" d="M30.283,0.002C30.283,4.709,16.715,8.518,0,8.518C-16.724,8.518,-30.283,4.709,-30.283,0.002C-30.283,-4.706,-16.724,-8.518,0,-8.518C16.715,-8.518,30.283,-4.706,30.283,0.002Z" /></g><g id="Group 12" transform="matrix(1,0,0,1,1797.878,1782.861)" opacity="0.07"><path fill="#727276" fill-opacity="1" d="M26.739,0.002C26.739,4.15,14.767,7.527,0,7.527C-14.767,7.527,-26.739,4.15,-26.739,0.002C-26.739,-4.155,-14.767,-7.527,0,-7.527C14.767,-7.527,26.739,-4.155,26.739,0.002Z" /></g><g id="Group 11" transform="matrix(1,0,0,1,1797.878,1782.861)" opacity="0.07"><path fill="#727276" fill-opacity="1" d="M24.376,0.002C24.376,3.784,13.462,6.861,0,6.861C-13.47,6.861,-24.376,3.784,-24.376,0.002C-24.376,-3.794,-13.47,-6.861,0,-6.861C13.462,-6.861,24.376,-3.794,24.376,0.002Z" /></g><g id="Group 10" transform="matrix(1,0,0,1,1797.878,1782.859)" opacity="0.07"><path fill="#727276" fill-opacity="1" d="M22.728,0.005C22.728,3.531,12.554,6.396,0,6.396C-12.554,6.396,-22.728,3.531,-22.728,0.005C-22.728,-3.53,-12.554,-6.396,0,-6.396C12.554,-6.396,22.728,-3.53,22.728,0.005Z" /></g><g id="Group 9" transform="matrix(1,0,0,1,1797.882,1782.864)" opacity="0.07"><path fill="#727276" fill-opacity="1" d="M20.925,0C20.925,3.249,11.553,5.889,-0.005,5.889C-11.554,5.889,-20.925,3.249,-20.925,0C-20.925,-3.258,-11.554,-5.889,-0.005,-5.889C11.553,-5.889,20.925,-3.258,20.925,0Z" /></g><g id="Group 8" transform="matrix(1,0,0,1,1797.882,1782.861)" opacity="0.07"><path fill="#727276" fill-opacity="1" d="M19.408,0.002C19.408,3.013,10.707,5.459,-0.005,5.459C-10.725,5.459,-19.408,3.013,-19.408,0.002C-19.408,-3.018,-10.725,-5.459,-0.005,-5.459C10.707,-5.459,19.408,-3.018,19.408,0.002Z" /></g><g id="Group 7" transform="matrix(1,0,0,1,1797.882,1782.861)" opacity="0.07"><path fill="#727276" fill-opacity="1" d="M17.742,0.002C17.742,2.757,9.79,4.992,-0.005,4.992C-9.808,4.992,-17.742,2.757,-17.742,0.002C-17.742,-2.758,-9.808,-4.992,-0.005,-4.992C9.79,-4.992,17.742,-2.758,17.742,0.002Z" /></g><g id="Group 6" transform="matrix(1,0,0,1,1797.874,1782.863)" opacity="0.07"><path fill="#727276" fill-opacity="1" d="M15.67,0C15.67,2.433,8.652,4.408,0.004,4.408C-8.653,4.408,-15.67,2.433,-15.67,0C-15.67,-2.433,-8.653,-4.408,0.004,-4.408C8.652,-4.408,15.67,-2.433,15.67,0Z" /></g><g id="Group 5" transform="matrix(1,0,0,1,1797.878,1782.859)" opacity="0.07"><path fill="#727276" fill-opacity="1" d="M14.282,0.005C14.282,2.222,7.882,4.02,0,4.02C-7.899,4.02,-14.282,2.222,-14.282,0.005C-14.282,-2.217,-7.899,-4.02,0,-4.02C7.882,-4.02,14.282,-2.217,14.282,0.005Z" /></g><g id="Group 4" transform="matrix(1,0,0,1,1797.878,1782.861)" opacity="0.07"><path fill="#727276" fill-opacity="1" d="M12.263,0.002C12.263,1.897,6.771,3.449,0,3.449C-6.771,3.449,-12.263,1.897,-12.263,0.002C-12.263,-1.902,-6.771,-3.449,0,-3.449C6.771,-3.449,12.263,-1.902,12.263,0.002Z" /></g><g id="Group 3" transform="matrix(1,0,0,1,1797.882,1782.859)" opacity="0.07"><path fill="#727276" fill-opacity="1" d="M10.099,0.005C10.099,1.569,5.567,2.839,-0.005,2.839C-5.576,2.839,-10.099,1.569,-10.099,0.005C-10.099,-1.573,-5.576,-2.839,-0.005,-2.839C5.567,-2.839,10.099,-1.573,10.099,0.005Z" /></g><g id="Group 2" transform="matrix(1,0,0,1,1797.883,1782.861)" opacity="0.07"><path fill="#727276" fill-opacity="1" d="M6.969,0.002C6.969,1.086,3.848,1.964,-0.005,1.964C-3.848,1.964,-6.969,1.086,-6.969,0.002C-6.969,-1.083,-3.848,-1.964,-0.005,-1.964C3.848,-1.964,6.969,-1.083,6.969,0.002Z" /></g><g id="Group 1" transform="matrix(1,0,0,1,1797.878,1782.861)" opacity="0.07"><path fill="#727276" fill-opacity="1" d="M4.725,0.002C4.725,0.734,2.61,1.329,0,1.329C-2.609,1.329,-4.725,0.734,-4.725,0.002C-4.725,-0.739,-2.609,-1.329,0,-1.329C2.61,-1.329,4.725,-0.739,4.725,0.002Z" /></g></g><g transform="matrix(1,0,0,1,88,-8)" id="Layer 3"><g id="Group 15" transform="matrix(1,0,0,1,720.702,1658.322)"><path fill="#d7d9dd" fill-opacity="1" d="M-196.407,-192.323L-196.407,146.859C-196.407,161.167,-108.476,192.323,-0.004,192.323C108.477,192.323,196.407,161.167,196.407,146.859L196.407,-192.323L-196.407,-192.323Z" /></g><g id="Group 14" transform="matrix(1,0,0,1,719.794,1812.882)"><path fill="#88868b" fill-opacity="1" d="M-196.407,-38.984L-196.407,-6.48C-196.407,7.828,-108.477,38.984,-0.005,38.984C108.476,38.984,196.407,7.828,196.407,-6.48L196.407,-38.984C196.407,-38.984,158.507,0,9.199,0C-140.099,0,-196.407,-38.984,-196.407,-38.984Z" /></g><g id="Group 13" transform="matrix(1,0,0,1,720.958,1780.009)"><path fill="#afaeb4" fill-opacity="1" d="M-196.654,-14.394C-176.263,1.144,-96.082,24.269,-0.261,24.269C95.577,24.269,175.777,1.135,196.15,-14.425C199.43,-16.911,199.5,-25.819,196.15,-24.034C178.765,-14.728,115.625,14.033,-0.261,14.033C-116.138,14.033,-179.278,-14.728,-196.663,-24.034C-198.549,-25.101,-199.951,-16.911,-196.654,-14.394Z" /></g><g id="Group 12" transform="matrix(1,0,0,1,719.858,1558.081)"><path fill="#afaeb4" fill-opacity="1" d="M-196.656,-14.395C-176.256,1.147,-96.083,24.267,-0.262,24.267C95.576,24.267,175.775,1.138,196.149,-14.422C199.428,-16.908,199.508,-25.821,196.149,-24.031C178.773,-14.73,115.624,14.036,-0.262,14.036C-116.13,14.036,-179.279,-14.73,-196.673,-24.031C-198.551,-25.098,-199.953,-16.908,-196.656,-14.395Z" /></g><g id="Group 11" transform="matrix(1,0,0,1,720.702,1466.002)"><path fill="#afaeb4" fill-opacity="1" d="M196.407,-0.002C196.407,14.315,108.477,25.912,-0.004,25.912C-108.476,25.912,-196.407,14.315,-196.407,-0.002C-196.407,-14.319,-108.476,-25.912,-0.004,-25.912C108.477,-25.912,196.407,-14.319,196.407,-0.002Z" /></g><g id="Group 10" transform="matrix(1,0,0,1,720.706,1466.004)"><path fill="#c3c4ca" fill-opacity="1" d="M185.506,-0.005C185.506,12.717,102.433,23.041,-0.009,23.041C-102.46,23.041,-185.506,12.717,-185.506,-0.005C-185.506,-12.735,-102.46,-23.041,-0.009,-23.041C102.433,-23.041,185.506,-12.735,185.506,-0.005Z" /></g><g id="Group 9" transform="matrix(1,0,0,1,0,0)"><g id="Group 3" transform="matrix(1,0,0,1,746.383,1444.601)"><path fill="#cea033" fill-opacity="1" d="M-26.593,-0.417C10.61,-0.417,45.231,0.951,74.279,3.291C73.362,2.374,72.737,1.342,72.384,0.24C43.309,-1.999,9.508,-3.291,-26.593,-3.291C-43.044,-3.291,-59.01,-3.021,-74.279,-2.519C-74.023,-1.584,-73.865,-0.632,-73.847,0.342C-58.754,-0.147,-42.929,-0.417,-26.593,-0.417Z" /></g><g id="Group 2" transform="matrix(1,0,0,1,878.874,1478.882)"><path fill="#cea033" fill-opacity="1" d="M-23.221,7.046C-2.618,4.437,13.709,1.249,24.165,-2.33C23.283,-3.573,22.754,-5.155,22.693,-7.046C15.675,-2.762,-0.909,1.091,-24.165,4.15C-23.715,5.067,-23.424,6.045,-23.221,7.046Z" /></g><g id="Group 1" transform="matrix(1,0,0,1,648.729,1474.071)"><path fill="#cea033" fill-opacity="1" d="M124.786,15.208C107.78,15.847,89.751,16.199,71.061,16.199C-31.381,16.199,-114.427,5.876,-114.427,-6.85C-114.427,-9.932,-109.534,-12.867,-100.727,-15.547C-101.388,-16.645,-101.882,-17.835,-102.164,-19.065C-116.939,-15.424,-125.341,-11.271,-125.341,-6.85C-125.341,7.467,-37.411,19.065,71.061,19.065C89.892,19.065,108.106,18.712,125.341,18.064C125.015,17.151,124.848,16.182,124.786,15.208Z" /></g></g><g id="Group 8" transform="matrix(1,0,0,1,719.794,1670.191)"><path fill="#cd3824" fill-opacity="1" d="M185.51,71.202C185.51,71.202,126.179,110.892,-0.004,110.892C-126.178,110.892,-185.51,71.202,-185.51,71.202L-185.51,-110.892C-185.51,-110.892,-141.404,-78.339,-3.839,-78.339C133.734,-78.339,185.51,-110.892,185.51,-110.892L185.51,71.202Z" /></g><g id="Group 7" transform="matrix(1,0,0,1,645.342,1585.68)"><path fill="#ebb83b" fill-opacity="1" d="M-122.916,13.617C-122.026,32.117,-122.625,49.965,-119.504,67.756C-116.409,85.432,-110.309,100.502,-105.442,118.271C-91.469,121.163,-107.338,89.866,-108.845,84.237C-112.821,69.184,-110.036,51.728,-104.411,37.962C-101.969,31.993,-94.193,17.491,-88.225,28.414C-85.104,34.114,-91.222,43.485,-91.54,49.824C-92.007,59.125,-91.972,89.673,-79.92,90.594C-75.063,84,-78.466,75.5,-77.39,67.98C-76.138,59.195,-71.889,51.662,-69.526,42.762C-67.825,36.353,-68.997,27.546,-61.257,24.575C-54.327,21.913,-48.447,28.167,-45.079,33.801C-33.407,24.817,-40.221,1.451,-26.874,-4.645C-5.531,-14.404,-10.67,24.139,-13.024,33.462C-14.584,39.629,-19.152,50.3,-14.594,56.912C-6.078,69.263,-1.458,53.924,-1.714,45.787C-2.207,29.221,-9.154,14.591,-7.761,-2.631C-6.677,-16.089,3.329,-25.874,5.348,-38.953C7.922,-55.562,-10.53,-73.384,17.461,-73.247C25.404,-73.208,33.674,-76.769,40.453,-75.288C41.643,-75.023,46.289,-71.07,48.731,-70.272C58.103,-67.177,55.59,-70.015,66.099,-73.974C77.419,-78.236,128.534,-75.636,128.728,-93.546C79.976,-91.655,-3.971,-94.26,-23.269,-95.975C-88.498,-101.763,-118.79,-109.083,-121.955,-118.459C-121.955,-118.459,-122.334,-82.138,-125.023,-49.117C-127.721,-16.088,-132.746,13.644,-122.916,13.617Z" /></g><g id="Group 6" transform="matrix(1,0,0,1,607.606,1523.486)"><path fill="#238d9f" fill-opacity="1" d="M10.57,-0.002C10.57,5.847,5.845,10.573,-0.009,10.573C-5.845,10.573,-10.57,5.847,-10.57,-0.002C-10.57,-5.842,-5.845,-10.573,-0.009,-10.573C5.845,-10.573,10.57,-5.842,10.57,-0.002Z" /></g><g id="Group 5" transform="matrix(1,0,0,1,610.335,1520.758)"><path fill="#004c56" fill-opacity="1" d="M7.842,0.007C7.842,4.331,4.324,7.844,-0.005,7.844C-4.334,7.844,-7.842,4.331,-7.842,0.007C-7.842,-4.331,-4.334,-7.844,-0.005,-7.844C4.324,-7.844,7.842,-4.331,7.842,0.007Z" /></g><g id="Group 4" transform="matrix(1,0,0,1,879.072,1504.297)"><path fill="#ebb83b" fill-opacity="1" d="M23.966,-27.745C24.116,-23.447,22.38,-18.828,22.441,-14.336C22.529,-7.292,25.086,-2.712,21.709,4.447C18.95,4.151,18.227,1.352,17.407,-0.878C16.252,-3.981,15.027,-4.294,13.105,-6.67C11.659,-8.464,11.289,-12.488,8.662,-13.343C5.189,-14.485,4.492,-10.209,4.36,-7.604C3.822,1.781,6.017,11.928,4.368,21.317C3.583,25.738,0.551,29.692,-4.148,26.703C-9.094,23.556,-7.084,14.669,-6.193,9.922C-5.276,4.945,-1.212,-3.328,-2.446,-8.274C-2.896,-10.077,-4.562,-11.8,-6.14,-12.982C-9.067,-15.173,-9.376,-14.988,-11.456,-12.312C-13.678,-9.42,-15.944,-4.1,-20.625,-8.005C-23.79,-10.65,-15.573,-12.647,-23.975,-18.364C-0.445,-20.55,23.966,-27.745,23.966,-27.745Z" /></g><g id="Group 3" transform="matrix(1,0,0,1,746.777,1465.046)"><path fill="#ebb83b" fill-opacity="1" d="M73.885,16.179L-74.241,20.939L-74.241,-20.104C-74.241,-20.104,-13.403,-21.241,3.912,-20.862C21.226,-20.478,65.448,-18.795,73.885,-17.155C74.688,-13.58,73.885,16.179,73.885,16.179Z" /></g><g id="Group 2" transform="matrix(1,0,0,1,719.803,1477.143)"><path fill="#ebb83b" fill-opacity="1" d="M-176.377,-2.781C-152.16,6.454,-82.381,13.127,-0.013,13.127C82.364,13.127,152.16,6.454,176.377,-2.781C176.377,-2.781,104.57,-13.127,-0.005,-13.127C-104.58,-13.127,-176.377,-2.781,-176.377,-2.781Z" /></g><g id="Group 1" transform="matrix(1,0,0,1,747.437,1436.019)"><path fill="#2f2b2f" fill-opacity="1" d="M-133.333,80.4C-130.891,-5.415,-69.567,-74.145,5.783,-74.145C60.38,-74.145,107.872,-36.633,130.679,15.871C133.659,16.422,141.496,18.018,144.943,18.829C122.162,-43.614,68.456,-87.466,5.783,-87.466C-75.976,-87.466,-142.501,-12.776,-144.943,80.4C-144.943,80.4,-144.997,87.466,-139.055,87.466C-133.122,87.466,-133.333,80.4,-133.333,80.4Z" /></g></g><g transform="matrix(1,0,0,1,88,-8)" id="Layer 2"><g id="Group 6" transform="matrix(1,0,0,1,1627.148,1598.473)"><path fill="#c56c00" fill-opacity="1" d="M251.581,-31.927L251.581,-42.141L-20.012,-92.365L-251.581,-4.681L-251.581,5.541L47.254,92.365L251.581,-31.927Z" /></g><g id="Group 5" transform="matrix(1,0,0,1,1627.148,1588.26)"><path fill="#e45215" fill-opacity="1" d="M251.581,-31.927L-20.012,-92.365L-251.581,5.532L47.254,92.365L251.581,-31.927Z" /></g><g id="Group 4" transform="matrix(1,0,0,1,1626.068,1402.328)"><path fill="#eb7e0f" fill-opacity="1" d="M147.108,177.133L19.162,-223.227L-28.092,-223.227L-147.231,177.318C-147.795,178.292,-148.148,179.301,-148.148,180.324C-148.148,195.549,-91.32,223.227,-0.013,223.227C99.422,223.227,148.148,195.549,148.148,180.324C148.148,179.248,147.778,178.182,147.108,177.133Z" /></g><g id="Group 3" transform="matrix(1,0,0,1,1621.603,1179.103)"><path fill="#e45215" fill-opacity="1" d="M23.627,-0.002C23.627,2.964,13.065,5.38,0,5.38C-13.039,5.38,-23.627,2.964,-23.627,-0.002C-23.627,-2.973,-13.039,-5.38,0,-5.38C13.065,-5.38,23.627,-2.973,23.627,-0.002Z" /></g><g id="Group 2" transform="matrix(1,0,0,1,1624.014,1313.598)"><path fill="#ffffff" fill-opacity="1" d="M72.41,25.663C72.41,25.663,48.668,38.411,-0.287,38.411C-46.465,38.411,-72.41,21.445,-72.41,21.445L-54.611,-38.411C-54.611,-38.411,-31.786,-31.596,0.974,-31.398C35.894,-31.199,51.939,-38.411,51.939,-38.411L72.41,25.663Z" /></g><g id="Group 1" transform="matrix(1,0,0,1,1625.804,1486.876)"><path fill="#ffffff" fill-opacity="1" d="M122.908,16.014C122.908,16.014,82.998,47.386,-4.201,47.386C-91.409,47.386,-122.908,12.479,-122.908,12.479L-105.065,-47.386C-105.065,-47.386,-74.059,-22.437,-4.201,-22.437C65.648,-22.437,102.657,-47.386,102.657,-47.386L122.908,16.014Z" /></g></g><g transform="matrix(1,0,0,1,88,-8)" id="Layer 1"><g id="Group 6" transform="matrix(1,0,0,1,1889.494,1673.309)"><path fill="#c56c00" fill-opacity="1" d="M-87.613,-236.231L-97.364,-233.198L-64.806,41.076L87.596,236.231L97.364,233.198L91.678,-77.94L-87.613,-236.231Z" /></g><g id="Group 5" transform="matrix(1,0,0,1,1884.61,1674.826)"><path fill="#e45215" fill-opacity="1" d="M-92.48,-234.714L-69.673,42.588L92.48,234.714L86.811,-76.423L-92.48,-234.714Z" /></g><g id="Group 4" transform="matrix(1,0,0,1,1725.711,1675.926)"><path fill="#eb7e0f" fill-opacity="1" d="M119.8,-141.867L-224.622,99.029L-210.605,144.162L207.246,139.181C208.348,139.432,209.423,139.468,210.393,139.164C224.939,134.65,234.514,72.171,207.449,-15.032C177.969,-109.989,137.08,-148.325,122.542,-143.807C121.511,-143.49,120.602,-142.819,119.8,-141.867Z" /></g><g id="Group 3" transform="matrix(1,0,0,1,1508.095,1797.522)"><path fill="#e45215" fill-opacity="1" d="M-7.007,-22.567C-4.168,-23.44,1.271,-14.069,5.141,-1.594C9.011,10.854,9.84,21.684,7.01,22.566C4.171,23.443,-1.267,14.051,-5.129,1.594C-9.008,-10.876,-9.846,-21.685,-7.007,-22.567Z" /></g><g id="Group 2" transform="matrix(1,0,0,1,1632.07,1748.732)"><path fill="#ffffff" fill-opacity="1" d="M6.803,-70.153C6.803,-70.153,26.013,-51.261,40.524,-4.505C54.224,39.597,45.708,69.404,45.708,69.404L-16.727,70.153C-16.727,70.153,-16.992,46.341,-26.513,14.983C-36.678,-18.421,-48.323,-31.601,-48.323,-31.601L6.803,-70.153Z" /></g><g id="Group 1" transform="matrix(1,0,0,1,1792.186,1698.386)"><path fill="#ffffff" fill-opacity="1" d="M-12.548,-118.26C-12.548,-118.26,29.249,-89.445,55.097,-6.169C80.955,77.111,56.958,117.55,56.958,117.55L-5.495,118.26C-5.495,118.26,9.13,81.255,-11.578,14.531C-32.296,-52.18,-67.092,-80.117,-67.092,-80.117L-12.548,-118.26Z" /></g></g></svg>